<?xml version="1.0" encoding="UTF-8"?>
<svg id="Layer_1" data-name="Layer 1" xmlns="http://www.w3.org/2000/svg" viewBox="0 0 1296.67 659.42">
  <defs>
    <style>
      .cls-1 {
        fill: #fff;
      }
    </style>
  </defs>
  <g>
    <path class="cls-1" d="M804.35,652.64s1.01,.18,2.89,.52c.95,.15,2.09,.43,3.47,.6,1.38,.13,2.97,.29,4.75,.46,1.78,.12,3.78,.06,5.92,.12,1.08,0,2.2-.14,3.36-.2,.58-.04,1.17-.08,1.77-.12,.3-.02,.6-.04,.91-.06,.3-.04,.61-.09,.92-.14,1.23-.18,2.51-.37,3.82-.56,.66-.07,1.32-.21,1.98-.37,.67-.15,1.35-.3,2.03-.45,.68-.15,1.38-.3,2.08-.45,.7-.16,1.4-.4,2.11-.6,1.42-.44,2.88-.78,4.35-1.31,11.76-3.92,24.85-11.12,37.23-21.58,6.14-5.18,12.23-11.36,18.23-18.08,6.02-6.73,12.02-14.02,18.24-21.65,6.23-7.61,12.42-15.14,18.83-22.2,3.21-3.52,6.43-6.96,9.75-10.2,.83-.81,1.63-1.62,2.48-2.42,.87-.79,1.74-1.59,2.6-2.37,1.7-1.6,3.51-3.02,5.26-4.46,14.17-11.35,29.12-18.24,42.05-22.01,6.49-1.87,12.53-2.86,17.81-3.44,1.32-.12,2.61-.17,3.84-.25,1.23-.05,2.4-.19,3.55-.14,2.28,.06,4.33,.02,6.18,.17,1.83,.18,3.47,.34,4.89,.47,1.41,.18,2.59,.44,3.54,.6,1.88,.35,2.88,.54,2.88,.54,0,0-1.02,.06-2.93,.19-.96,.07-2.13,.09-3.52,.24-1.38,.18-2.97,.38-4.75,.61-1.78,.24-3.73,.71-5.85,1.1-1.06,.18-2.15,.54-3.29,.82-1.13,.31-2.31,.58-3.52,.94-4.81,1.51-10.18,3.43-15.84,6.12-11.28,5.41-23.91,13.54-35.58,24.84-1.44,1.43-2.94,2.83-4.31,4.37-.71,.75-1.41,1.51-2.13,2.27-.71,.78-1.42,1.62-2.14,2.43-2.88,3.25-5.73,6.7-8.64,10.22-5.8,7.07-11.68,14.64-17.99,22.35-12.6,15.42-25.94,29.93-40.92,40.36-14.91,10.38-30.49,16.3-43.95,18.44-1.67,.31-3.35,.42-4.95,.63-.81,.08-1.59,.2-2.38,.24-.79,.03-1.56,.06-2.33,.09-.76,.03-1.51,.05-2.26,.08-.74,.04-1.47,.05-2.19,0-1.43-.06-2.82-.13-4.17-.19-.33-.02-.66-.03-.99-.05-.33-.04-.65-.08-.97-.12-.64-.08-1.27-.17-1.89-.25-1.23-.18-2.41-.29-3.53-.51-2.23-.52-4.27-.91-6.05-1.43-1.75-.58-3.32-1.1-4.68-1.55-1.33-.49-2.41-1.05-3.3-1.42-1.74-.79-2.67-1.22-2.67-1.22Z"/>
    <path class="cls-1" d="M1295.69,386.96s.06,.27,.18,.74c.1,.49,.31,1.21,.43,2.16,.32,1.89,.51,4.71,.22,8.18-.3,3.46-1.14,7.53-2.51,11.84-1.38,4.3-3.29,8.83-5.51,13.36-2.22,4.53-4.49,8.67-6.47,12.44-1.97,3.77-3.65,7.18-4.87,10.16-1.21,2.97-2.02,5.5-2.45,7.3-.26,.9-.36,1.61-.48,2.1-.11,.48-.17,.75-.17,.75,0,0-.06-.27-.18-.74-.1-.49-.31-1.21-.43-2.16-.32-1.89-.51-4.71-.21-8.18,.3-3.46,1.14-7.53,2.52-11.84,1.39-4.3,3.29-8.83,5.51-13.36,2.22-4.53,4.49-8.67,6.47-12.44,1.97-3.77,3.65-7.18,4.86-10.16,1.21-2.97,2.01-5.5,2.44-7.3,.26-.9,.36-1.61,.48-2.1,.11-.48,.17-.75,.17-.75Z"/>
  </g>
  <g>
    <path class="cls-1" d="M322.96,5.85s-.77-.22-2.19-.63c-1.44-.35-3.58-.83-6.3-.96-2.72-.13-6.01,.07-9.6,1.09-3.59,.97-7.44,2.75-11.32,5.32-7.77,5.11-15.54,13.49-22.31,23.95-6.9,10.61-13.24,23.36-20.28,36.95-3.53,6.79-7.09,13.47-10.82,19.86-1.86,3.19-3.77,6.31-5.71,9.33-.97,1.51-1.98,2.99-2.96,4.45-1,1.47-2.1,2.93-3.13,4.36-8.55,11.34-18.52,19.75-27.92,24.94-4.67,2.65-9.32,4.32-13.41,5.41-1.03,.24-2.02,.48-2.99,.7-.97,.13-1.91,.26-2.82,.39-.45,.06-.88,.12-1.31,.17-.43,.05-.86,.04-1.27,.06-.82,.02-1.6,.04-2.34,.06-.73,.05-1.43-.03-2.08-.09-.64-.06-1.25-.11-1.81-.17-1.11-.06-2.04-.33-2.78-.48-1.45-.33-2.24-.51-2.24-.51,0,0,.8-.08,2.28-.22,.74-.08,1.65-.1,2.7-.36,.53-.11,1.09-.22,1.69-.35,.6-.12,1.23-.23,1.89-.47,.66-.21,1.35-.42,2.07-.65,.36-.12,.73-.21,1.1-.36,.37-.15,.74-.31,1.12-.47,.76-.32,1.55-.65,2.37-.99,.79-.42,1.61-.85,2.46-1.29,3.33-1.87,6.96-4.22,10.53-7.4,7.19-6.26,14.52-15.09,20.82-25.92,.76-1.38,1.55-2.71,2.33-4.16,.78-1.47,1.56-2.95,2.35-4.44,1.56-3.01,3.14-6.12,4.74-9.31,3.19-6.38,6.47-13.08,10.03-19.94,7.11-13.72,14.81-26.83,23.85-37.66,9.11-10.93,19.7-18.97,29.98-22.97,5.11-2.01,10.09-3,14.44-3.07,4.36-.12,8.05,.68,10.85,1.63,2.82,.97,4.78,2.11,6.07,2.9,1.27,.84,1.9,1.3,1.9,1.3Z"/>
    <path class="cls-1" d="M1.39,281.07s-.25-.98-.62-2.8c-.09-.47-.19-.98-.3-1.53-.06-.58-.13-1.19-.2-1.83-.14-1.32-.29-2.84-.27-4.5,0-.87,0-1.74,0-2.63,.06-.94,.12-1.88,.19-2.82,.11-1.97,.44-4.01,.76-6.18,.74-4.29,1.85-8.92,3.3-13.61,1.45-4.68,3-9.02,4.42-12.94,.65-1.96,1.39-3.83,1.94-5.58,.29-.85,.58-1.7,.87-2.54,.24-.8,.48-1.59,.72-2.37,.51-1.51,.85-2.9,1.18-4.13,.17-.6,.33-1.18,.48-1.72,.11-.52,.21-1.01,.31-1.46,.38-1.77,.64-2.78,.64-2.78,0,0,.25,.98,.62,2.8,.09,.47,.19,.98,.3,1.53,.06,.58,.13,1.19,.2,1.83,.13,1.32,.29,2.84,.26,4.5,0,.87,0,1.74,0,2.63-.06,.94-.13,1.88-.19,2.82-.11,1.97-.44,4.01-.76,6.18-.74,4.29-1.86,8.92-3.31,13.61-1.45,4.68-3,9.02-4.42,12.94-.65,1.96-1.39,3.83-1.94,5.58-.29,.85-.58,1.7-.87,2.54-.24,.8-.48,1.59-.72,2.37-.51,1.51-.85,2.9-1.18,4.13-.17,.6-.33,1.18-.48,1.72-.11,.52-.21,1.01-.31,1.47-.38,1.77-.63,2.78-.63,2.78Z"/>
  </g>
</svg>