<?xml version="1.0" encoding="UTF-8"?><svg id="Layer_1" xmlns="http://www.w3.org/2000/svg" xmlns:xlink="http://www.w3.org/1999/xlink" viewBox="0 0 1920 1080"><defs><style>.cls-1{fill:#fff;}.cls-2{opacity:.07;}.cls-3{clip-path:url(#clippath-1);}.cls-4{clip-path:url(#clippath);}.cls-5{fill:none;}</style><clipPath id="clippath"><rect class="cls-5" y="-.61" width="1922.61" height="760.46" transform="translate(1922.61 759.25) rotate(-180)"/></clipPath><clipPath id="clippath-1"><rect class="cls-5" x="0" y="334.23" width="1922.61" height="760.46"/></clipPath></defs><g class="cls-2"><g class="cls-4"><path class="cls-1" d="M1322.94,449.77s.54-2.31,1.56-6.7c.49-2.22,1.27-4.89,2.18-8.09,.87-3.21,2.09-6.83,3.47-10.94,2.86-8.16,6.72-18.1,12.21-29.24,5.49-11.13,12.51-23.51,21.42-36.51,8.92-12.98,19.73-26.56,32.51-40.13,12.75-13.63,27.57-26.94,43.83-39.83,32.55-25.84,71.08-49.29,111.74-71.27,40.69-21.96,79.62-40.78,113.72-59.4,17.06-9.29,32.99-18.43,47.46-27.61,3.56-2.35,7.16-4.57,10.57-6.89,1.71-1.16,3.4-2.31,5.08-3.44,.84-.57,1.68-1.13,2.51-1.69,.81-.58,1.62-1.16,2.43-1.73,3.2-2.31,6.47-4.55,9.45-6.8,3-2.26,5.92-4.5,8.7-6.76,11.13-9.03,20.42-18.09,27.44-26.91,7.08-8.78,11.81-17.34,14.49-24.88,2.71-7.54,3.35-13.99,3.4-18.39,0-2.2-.07-3.91-.19-5.05-.09-1.15-.14-1.74-.14-1.74,0,0,.25,.54,.72,1.59,.51,1.05,1.13,2.66,1.87,4.84,1.4,4.35,2.96,11.2,2.51,20.28-.41,9.04-2.93,20.16-8.18,31.95-5.18,11.84-12.95,24.34-22.88,36.9-2.48,3.15-5.11,6.28-7.86,9.43-2.76,3.18-5.64,6.17-8.58,9.35-.74,.79-1.48,1.57-2.23,2.37-.76,.77-1.53,1.54-2.3,2.32-1.55,1.55-3.12,3.12-4.7,4.7-3.17,3.16-6.53,6.2-9.9,9.39-13.64,12.49-29.03,24.79-45.72,36.79-33.38,24.05-72.01,46.44-112.34,68.22-40.33,21.79-78.5,41.3-111.36,61.28-16.44,9.97-31.67,19.91-45.24,30.09-13.63,10.15-25.85,20.37-36.56,30.32-10.69,9.96-19.86,19.62-27.6,28.48-7.73,8.87-13.92,17-18.89,23.79-2.43,3.42-4.64,6.46-6.4,9.2-1.81,2.71-3.38,5-4.54,6.91-2.4,3.8-3.67,5.8-3.67,5.8Z"/><path class="cls-1" d="M1754.88,493.05s-.14-.6-.4-1.77c-.24-1.17-.71-2.92-1.05-5.25-.82-4.65-1.66-11.65-1.56-20.76,.15-18.17,4.04-44.94,16.9-75.66,3.21-7.68,6.99-15.6,11.49-23.66,4.5-8.07,9.7-16.28,16.02-24.46,3.12-4.11,6.62-8.18,10.44-12.23,.98-1,1.97-2.01,2.95-3.02,1.02-1,2.1-1.99,3.16-2.99,1.04-1,2.19-1.98,3.35-2.95,1.06-.9,2.12-1.81,3.19-2.71,3.63-3.1,7.3-6.24,11.03-9.43,1.87-1.58,3.75-3.17,5.64-4.78,1.86-1.65,3.73-3.3,5.62-4.97,3.78-3.3,7.61-6.65,11.48-10.03,3.81-3.45,7.67-6.94,11.57-10.47,1.96-1.75,3.92-3.51,5.9-5.27,1.94-1.81,3.89-3.63,5.85-5.46,3.94-3.63,7.92-7.29,11.93-10.98,3.96-3.75,7.95-7.54,11.97-11.36,2.01-1.91,4.07-3.77,6.07-5.72,2-1.95,4.01-3.9,6.03-5.87,4.02-3.93,8.17-7.79,12.23-11.8,4.04-4.03,8.12-8.06,12.25-12.09,16.31-16.33,32.25-32.28,47.09-48.19,1.88-1.97,3.75-3.93,5.61-5.88,1.9-1.93,3.64-3.96,5.46-5.91,3.62-3.92,7.22-7.81,10.77-11.66,3.55-3.85,6.91-7.78,10.35-11.58,3.4-3.83,6.88-7.55,10.07-11.38,3.27-3.79,6.5-7.53,9.68-11.23,.8-.92,1.6-1.84,2.4-2.76,.77-.93,1.53-1.86,2.29-2.79,1.53-1.86,3.05-3.7,4.55-5.53,3-3.67,6.07-7.23,8.95-10.82,2.85-3.62,5.66-7.18,8.41-10.68,1.39-1.75,2.77-3.48,4.15-5.2,1.38-1.72,2.61-3.49,3.92-5.2,2.59-3.45,5.13-6.83,7.62-10.15,2.6-3.39,4.79-6.4,6.92-9.5,2.12-3.09,4.07-6.18,5.91-9.24,7.32-12.24,12.24-24.2,14.66-35.2,2.51-11,2.44-21.01,1.14-29.21-.63-4.1-1.61-7.72-2.56-10.87-1.01-3.12-2.03-5.77-2.95-7.87-.47-1.05-.88-1.98-1.24-2.78-.39-.79-.72-1.45-.99-1.98-.53-1.07-.81-1.63-.81-1.63,0,0,.46,.41,1.35,1.21,.45,.41,1,.91,1.67,1.51,.64,.62,1.36,1.36,2.2,2.21,3.27,3.41,7.96,8.79,12.37,17.11,2.17,4.16,4.23,9.05,5.86,14.66,1.65,5.61,2.77,11.93,3.27,18.8,.52,6.88,.26,14.27-.68,22.02-.99,7.73-2.7,15.8-5.18,24.02-1.25,4.1-2.65,8.27-4.26,12.44-1.6,4.16-3.43,8.47-5.24,12.36-1.84,4.01-3.72,8.11-5.63,12.27-.98,2.07-1.91,4.22-2.97,6.29-1.06,2.07-2.14,4.17-3.22,6.28-2.2,4.22-4.43,8.51-6.69,12.87-2.33,4.32-4.86,8.6-7.38,13-1.27,2.19-2.55,4.4-3.84,6.62-.65,1.11-1.3,2.22-1.96,3.34-.69,1.09-1.37,2.19-2.06,3.29-2.79,4.39-5.61,8.84-8.47,13.34-2.83,4.54-5.95,8.92-9.04,13.42-3.13,4.47-6.23,9.05-9.54,13.54-3.36,4.45-6.75,8.95-10.17,13.49-1.74,2.25-3.42,4.57-5.25,6.78-1.81,2.22-3.63,4.46-5.45,6.7-14.52,18.06-30.74,35.72-48.07,53.06-4.38,4.28-8.76,8.52-13.13,12.7-4.39,4.17-8.9,8.14-13.33,12.14-2.23,1.98-4.44,3.96-6.65,5.93-2.22,1.96-4.51,3.83-6.75,5.72-4.52,3.75-9,7.48-13.44,11.17-4.54,3.58-9.07,7.09-13.56,10.55-2.25,1.72-4.49,3.44-6.71,5.15-2.28,1.65-4.54,3.29-6.8,4.92-4.52,3.23-9,6.42-13.43,9.58-4.53,3.02-9.01,6-13.44,8.94-2.22,1.46-4.42,2.91-6.61,4.34-2.22,1.4-4.45,2.76-6.66,4.12-4.42,2.69-8.79,5.34-13.09,7.96l-1.5,.9-1.2,.7c-.8,.46-1.61,.9-2.41,1.45-.8,.52-1.61,1.02-2.42,1.56-.8,.57-1.61,1.13-2.41,1.69-3.19,2.33-6.36,4.8-9.39,7.49-6.11,5.3-11.82,11.1-17.08,16.99-5.27,5.89-10.11,11.88-14.53,17.81-8.84,11.86-16.02,23.43-21.62,34-5.66,10.57-9.67,20.19-12.51,28.28-2.84,8.09-4.38,14.68-5.23,19.21-.5,2.27-.68,4.01-.89,5.2-.19,1.19-.28,1.79-.28,1.79Z"/><path class="cls-1" d="M1087.49,583.46s3.05-1.85,8.83-5.36c.72-.43,1.49-.89,2.29-1.38,.81-.47,1.65-.99,2.51-1.58,1.73-1.15,3.63-2.4,5.68-3.76,1.02-.67,2.08-1.37,3.18-2.1,.55-.36,1.11-.73,1.68-1.1,.55-.4,1.12-.81,1.69-1.22,2.28-1.65,4.71-3.4,7.27-5.26,10.13-7.59,22.11-17.28,34.68-29.73,12.57-12.42,25.72-27.55,38.46-45.4,6.28-9.01,12.55-18.6,18.57-28.9,5.97-10.34,11.73-21.27,17.35-32.94,11.24-23.3,21.55-49.26,32.74-77.27,5.61-14,11.47-28.52,17.97-43.4,.81-1.86,1.63-3.72,2.45-5.59,.85-1.87,1.7-3.75,2.55-5.63,.86-1.88,1.72-3.76,2.59-5.65,.9-1.89,1.8-3.78,2.7-5.67,1.78-3.8,3.68-7.59,5.6-11.41,1.87-3.83,3.95-7.61,6.02-11.41,16.38-30.52,36.43-60.44,59.82-88.65,2.83-3.61,5.91-6.97,8.91-10.4,3.02-3.41,6.02-6.8,9.02-10.18,1.47-1.72,3.08-3.3,4.63-4.93,1.56-1.62,3.12-3.24,4.68-4.85,3.12-3.22,6.23-6.43,9.33-9.62,6.44-6.14,12.82-12.25,19.25-18.19,6.61-5.74,13.11-11.49,19.7-17,6.73-5.35,13.36-10.69,20.03-15.83,6.81-4.97,13.55-9.87,20.25-14.67,6.87-4.54,13.66-9.04,20.38-13.48,1.66-1.13,3.41-2.12,5.12-3.17,1.71-1.03,3.42-2.06,5.12-3.09,3.41-2.04,6.79-4.07,10.16-6.09,1.69-.99,3.34-2.04,5.06-2.96,1.71-.93,3.41-1.87,5.11-2.79,3.4-1.85,6.77-3.68,10.13-5.5,1.68-.91,3.35-1.81,5.01-2.71l2.5-1.34,2.54-1.25c3.37-1.65,6.73-3.3,10.05-4.93,3.33-1.62,6.63-3.23,9.91-4.82,1.63-.82,3.29-1.54,4.95-2.27,1.66-.73,3.3-1.45,4.95-2.17,3.28-1.43,6.54-2.85,9.77-4.27,1.62-.7,3.22-1.4,4.83-2.09,1.61-.7,3.2-1.39,4.73-2.01,24.74-10.06,47.57-19.84,69.18-28.52,10.86-4.3,21.53-8.2,31.86-11.35,5.22-1.44,10.24-2.94,15.19-4.01,2.47-.55,4.88-1.19,7.27-1.64,2.38-.46,4.73-.91,7.04-1.36,9.21-1.68,17.75-2.88,25.59-3.82,3.92-.52,7.67-.91,11.24-1.26,3.57-.36,6.96-.7,10.18-1.02,6.42-.52,12.13-.99,17.08-1.39,4.95-.37,9.14-.62,12.52-.84,6.77-.4,10.33-.61,10.33-.61,0,0-3.39,1.1-9.84,3.19-6.45,2.06-15.95,5.1-28.18,9.01-3.04,1.01-6.24,2.07-9.61,3.18-3.37,1.1-6.9,2.26-10.54,3.56-7.32,2.5-15.2,5.33-23.46,8.6-2.05,.83-4.14,1.68-6.26,2.54-2.12,.84-4.2,1.85-6.35,2.78-4.31,1.83-8.58,4.05-13.01,6.19-8.76,4.55-17.85,9.81-27.47,15.63-19.26,11.77-40.81,25.18-64.38,38.66-5.64,3.36-11.37,6.77-17.19,10.24-1.45,.86-2.9,1.72-4.36,2.59-1.46,.86-2.93,1.72-4.36,2.67-2.88,1.85-5.78,3.71-8.7,5.58-2.92,1.86-5.86,3.74-8.82,5.63l-2.23,1.41-2.18,1.5c-1.46,1-2.92,2.01-4.38,3.01-2.93,2.01-5.88,4.03-8.86,6.06-1.49,1.01-2.98,2.03-4.47,3.05-1.51,1-2.93,2.13-4.41,3.19-2.93,2.15-5.89,4.32-8.86,6.49-1.49,1.08-2.98,2.17-4.47,3.26-1.49,1.1-3.02,2.14-4.46,3.32-5.85,4.57-11.78,9.2-17.76,13.88-5.82,4.85-11.7,9.76-17.64,14.71-5.77,5.12-11.6,10.29-17.48,15.5-5.75,5.34-11.43,10.85-17.25,16.3-5.61,5.65-11.26,11.35-16.96,17.1-2.74,2.97-5.49,5.94-8.25,8.93-1.38,1.49-2.77,2.98-4.16,4.47-1.38,1.5-2.82,2.95-4.13,4.53-2.68,3.09-5.37,6.19-8.06,9.3-2.69,3.11-5.48,6.16-8.02,9.42-21.12,25.48-39.85,51.82-55.96,78.47-2.03,3.32-4.1,6.6-5.99,10-1.94,3.36-3.88,6.7-5.74,10.11-.94,1.69-1.88,3.38-2.82,5.07-.92,1.71-1.84,3.41-2.76,5.11-.92,1.7-1.84,3.4-2.75,5.09-.9,1.71-1.8,3.42-2.7,5.13-7.19,13.64-14.12,27.32-21.07,40.81-13.86,26.96-27.91,53.09-43.33,76.49-7.68,11.69-15.71,22.76-23.88,32.97-8.23,10.19-16.69,19.49-25.06,28.01-16.96,16.91-33.94,30.34-49.63,40.68-15.7,10.37-30.11,17.62-42.03,22.93-3,1.27-5.84,2.47-8.5,3.59-.66,.28-1.32,.55-1.96,.82-.66,.24-1.3,.48-1.94,.71-1.27,.46-2.49,.91-3.66,1.33-2.35,.85-4.51,1.63-6.49,2.34-.98,.37-1.94,.67-2.85,.94-.91,.28-1.78,.54-2.59,.79-6.5,1.95-9.92,2.97-9.92,2.97Z"/><path class="cls-1" d="M853.35,438.6s.89-1.28,2.58-3.69c.87-1.21,1.94-2.7,3.21-4.46,.65-.88,1.34-1.83,2.09-2.85,.77-.99,1.63-2,2.53-3.09,1.81-2.17,3.84-4.59,6.1-7.23,2.3-2.59,4.93-5.25,7.74-8.18,2.78-2.99,5.99-5.86,9.37-8.99,1.71-1.54,3.43-3.2,5.29-4.76,1.87-1.55,3.79-3.14,5.76-4.77,15.82-12.93,36.16-26.67,60.1-38.9,3.01-1.5,6.05-3.02,9.12-4.56,3.08-1.56,6.25-2.93,9.43-4.41,3.2-1.43,6.42-2.95,9.71-4.31,3.3-1.36,6.63-2.74,9.99-4.12,13.49-5.35,27.65-10.38,42.3-14.71,7.32-2.25,14.6-4.16,21.79-6.06,7.26-1.77,14.4-3.55,21.5-4.98,7.08-1.52,14.08-2.77,20.94-3.96,6.86-1.11,13.59-2.13,20.13-2.96,13.09-1.7,25.44-2.88,36.87-3.94,11.43-1.05,21.96-2.09,31.64-3.11,19.3-2.14,35.12-4.41,46.14-6.03,5.5-.82,9.8-1.46,12.72-1.89,2.93-.4,4.48-.61,4.48-.61,0,0-1.32,.84-3.8,2.43-2.51,1.56-6.19,3.93-11.05,6.75-9.71,5.66-24.08,13.43-42.78,21.27-9.34,3.86-19.75,7.77-30.93,11.48-11.16,3.72-23.03,7.33-35.34,11.04-6.14,1.84-12.42,3.72-18.82,5.63-6.38,1.93-12.87,3.9-19.48,5.91-13.26,4.02-26.97,8.17-41,12.42-14.01,4.18-27.69,8.27-40.94,12.22-3.29,1-6.55,1.98-9.79,2.96-3.25,.94-6.4,2-9.57,2.96-3.14,1-6.32,1.88-9.37,2.91-3.07,.98-6.12,1.96-9.12,2.92-24.05,7.68-45.36,15.53-63.1,22.99-2.22,.93-4.39,1.85-6.51,2.74-2.12,.89-4.1,1.88-6.09,2.77-3.94,1.83-7.77,3.46-11.16,5.25-3.43,1.75-6.72,3.29-9.67,4.84-2.93,1.6-5.61,3.06-8.03,4.38-1.21,.66-2.39,1.26-3.45,1.87-1.05,.63-2.03,1.22-2.94,1.77-1.84,1.09-3.4,2.02-4.67,2.77-2.56,1.49-3.91,2.27-3.91,2.27Z"/><path class="cls-1" d="M232.28,527.46s.19-1.29,.53-3.72c.19-1.22,.41-2.73,.72-4.51,.34-1.78,.74-3.82,1.18-6.12,1.9-9.18,5.34-22.42,11.55-38.19,6.2-15.75,15.33-33.98,27.88-52.6,12.48-18.65,28.34-37.62,46.66-55.34,18.31-17.74,37.17-32.61,54.32-45.5,17.17-12.89,32.67-23.89,44.76-33.91,6.06-5,11.25-9.76,15.47-14.26,4.24-4.49,7.43-8.75,9.74-12.51,2.3-3.76,3.7-6.99,4.54-9.26,.44-1.13,.66-2.02,.87-2.62,.19-.6,.29-.91,.29-.91,0,0,.05,.32,.15,.94,.08,.62,.28,1.56,.37,2.81,.23,2.49,.33,6.24-.38,11.09-.71,4.83-2.25,10.74-4.97,17.16-2.7,6.44-6.47,13.43-11.18,20.65-9.41,14.48-22.43,29.89-37.31,45.74-14.9,15.86-31.68,32.22-49.07,49.07-17.4,16.84-33.75,32.71-48.12,47.75-14.4,14.99-26.81,29.15-36.85,41.63-10.03,12.46-17.79,23.16-23.03,30.72-1.31,1.89-2.47,3.58-3.49,5.05-.99,1.48-1.84,2.73-2.53,3.75-1.39,2.02-2.12,3.1-2.12,3.1Z"/><path class="cls-1" d="M450.8,516.36s.39-1.88,1.14-5.44c.2-.9,.41-1.9,.65-3,.25-1.1,.6-2.28,.94-3.58,.72-2.58,1.46-5.61,2.59-8.91,.55-1.67,1.12-3.43,1.72-5.27,.63-1.84,1.38-3.73,2.13-5.74,1.45-4.04,3.35-8.26,5.33-12.88,4.16-9.09,9.46-19.26,16.12-30.03,13.29-21.55,32.14-45.52,56.77-68.53,24.7-22.86,54.99-45.12,91.47-61.37,9.14-4.02,18.44-7.55,27.9-10.49,2.39-.68,4.77-1.37,7.15-2.04,.91-.26,1.81-.52,2.72-.78l1.11-.3c.37-.1,.82-.27,1.22-.41l2.5-.84c.88-.34,1.76-.67,2.63-1l1.32-.5,1.35-.56c.9-.37,1.8-.74,2.7-1.12,7.27-3.1,14.63-6.67,21.82-10.31,7.19-3.65,14.24-7.41,21.12-11.15,6.88-3.74,13.55-7.53,20.04-11.22,6.46-3.74,12.76-7.38,18.79-11.01,12.1-7.21,23.27-14.15,33.35-20.7,20.17-13.08,36.03-24.55,46.43-33.25,.66-.54,1.3-1.06,1.92-1.57,.6-.52,1.19-1.03,1.76-1.53,1.14-.99,2.21-1.92,3.2-2.78,1.92-1.79,3.55-3.31,4.87-4.54,2.56-2.56,3.91-3.91,3.91-3.91,0,0-.81,1.75-2.35,5.05-.83,1.63-1.91,3.62-3.19,5.99-.69,1.16-1.43,2.4-2.21,3.73-.4,.67-.81,1.35-1.24,2.06-.45,.69-.91,1.4-1.38,2.14-7.52,11.83-20.01,27.91-37.33,45.93-8.65,9.02-18.51,18.51-29.54,28.2-5.49,4.88-11.33,9.74-17.4,14.69-6.12,4.9-12.49,9.86-19.21,14.75-6.72,4.89-13.74,9.76-21.15,14.53-7.43,4.76-15.2,9.43-23.77,13.83-1.09,.54-2.19,1.09-3.28,1.63l-1.65,.81-1.73,.79c-1.16,.52-2.32,1.05-3.49,1.57-1.24,.5-2.49,1.01-3.74,1.52-.64,.25-1.23,.5-1.92,.75l-2.08,.72c-1.23,.41-2.46,.83-3.7,1.24-1.92,.64-3.85,1.27-5.78,1.91-7.74,2.73-15.56,5.87-23.44,9.32-7.88,3.44-15.57,7.28-23.13,11.15-7.55,3.9-14.88,8.05-22.06,12.2-14.29,8.45-27.82,17.27-40.39,26.21-25.11,17.94-46.45,36.26-63.16,53.06-8.37,8.39-15.6,16.39-21.74,23.67-2.96,3.7-5.86,7.1-8.28,10.4-1.23,1.64-2.46,3.18-3.57,4.7-1.09,1.53-2.13,2.98-3.11,4.36-2.03,2.74-3.62,5.3-5.1,7.48-.72,1.1-1.43,2.1-2.01,3.05-.58,.95-1.11,1.81-1.58,2.58-1.92,3.08-2.93,4.71-2.93,4.71Z"/><path class="cls-1" d="M556.98,221.9s2.51-2.12,7.29-6.15c4.79-4.01,11.89-9.9,21.15-17.33,18.58-14.79,45.58-36.16,82.16-58.98,18.3-11.37,39.07-23,62.49-33.71,1.46-.68,2.93-1.36,4.4-2.04,1.5-.64,3-1.28,4.5-1.92,3.02-1.28,6.07-2.57,9.14-3.87,3.06-1.34,6.24-2.46,9.41-3.69,3.18-1.21,6.39-2.42,9.61-3.64,3.28-1.11,6.57-2.23,9.9-3.35,1.67-.56,3.34-1.12,5.01-1.68l2.52-.84,2.55-.75c3.41-1,6.85-2.01,10.31-3.03,1.73-.5,3.47-1.01,5.22-1.51,1.75-.45,3.5-.89,5.26-1.34,28.16-7.34,58-12.64,88.61-16.62,30.59-3.97,62.01-6.76,93.61-9.59,7.87-.74,15.74-1.4,23.45-2.17,3.86-.37,7.71-.74,11.55-1.1,3.81-.4,7.61-.8,11.4-1.19,1.89-.2,3.78-.39,5.67-.58,1.87-.22,3.74-.44,5.6-.66,3.73-.43,7.44-.86,11.14-1.29,3.67-.49,7.32-.98,10.96-1.46,3.64-.48,7.28-.93,10.84-1.5,28.66-4.18,56.09-9.94,81.97-16.65,12.95-3.33,25.47-7.04,37.57-10.89,12.1-3.86,23.78-7.91,34.94-12.19,11.17-4.26,21.91-8.61,32.07-13.17,1.28-.56,2.55-1.12,3.81-1.67,1.25-.58,2.5-1.16,3.73-1.73,2.47-1.15,4.95-2.26,7.36-3.42,4.8-2.34,9.55-4.59,14.09-6.95,36.6-18.53,64.3-37.8,82.69-52.27,4.66-3.57,8.59-6.97,12.12-9.83,3.41-2.97,6.35-5.47,8.67-7.54,4.62-4.19,7.06-6.4,7.06-6.4,0,0-1.75,2.79-5.06,8.1-1.71,2.63-3.91,5.83-6.5,9.63-2.72,3.7-5.77,8.07-9.51,12.75-7.38,9.46-16.96,20.69-29.07,32.86-12.11,12.18-26.73,25.34-44.06,38.5-4.3,3.34-8.83,6.57-13.45,9.92-2.32,1.66-4.71,3.26-7.11,4.92-1.2,.82-2.41,1.65-3.63,2.48-1.23,.81-2.47,1.61-3.71,2.43-9.93,6.57-20.56,12.94-31.78,19.21-11.21,6.28-23.08,12.3-35.52,18.05-12.44,5.75-25.45,11.28-39.03,16.32-27.14,10.12-56.44,18.82-87.42,25.11-3.87,.84-7.75,1.53-11.65,2.24-3.9,.7-7.82,1.41-11.76,2.11-3.93,.61-7.87,1.22-11.83,1.84-1.98,.3-3.97,.6-5.95,.91-1.98,.27-3.97,.53-5.96,.8-3.98,.52-7.97,1.04-11.98,1.56-4,.49-8,.92-12.02,1.37-8.06,.93-16.08,1.66-24.19,2.42-32.35,2.9-63.47,4.71-93.11,6.91-29.62,2.2-57.71,4.89-84.03,8.91-1.65,.24-3.29,.48-4.93,.72-1.62,.29-3.23,.58-4.84,.86-3.22,.57-6.43,1.13-9.61,1.69l-2.39,.41-2.36,.49c-1.57,.33-3.13,.65-4.69,.98-3.12,.65-6.22,1.29-9.3,1.92-3.06,.74-6.1,1.47-9.12,2.19-3.02,.75-6.05,1.36-9,2.21-2.97,.8-5.91,1.59-8.83,2.38-1.46,.39-2.92,.78-4.37,1.17-1.44,.43-2.87,.86-4.3,1.29-22.92,6.69-44.11,14.29-63.38,21.86-38.52,15.23-69.41,29.95-90.89,39.81-10.75,4.96-19.11,8.82-24.78,11.43-5.69,2.58-8.69,3.93-8.69,3.93Z"/><path class="cls-1" d="M188.37,364.77s.9-2.25,2.62-6.51c1.74-4.25,4.33-10.51,7.8-18.5,6.99-15.96,17.28-38.99,32.71-66.46,7.74-13.72,16.83-28.54,27.72-43.88,1.37-1.91,2.73-3.86,4.14-5.79,1.44-1.92,2.9-3.85,4.36-5.8,2.9-3.92,6.05-7.77,9.21-11.71,1.57-1.98,3.22-3.92,4.89-5.87,1.68-1.95,3.36-3.91,5.06-5.89,1.72-1.96,3.53-3.89,5.31-5.85,1.81-1.94,3.58-3.95,5.47-5.86,14.93-15.51,31.98-30.66,51.14-44.55,19.22-13.79,40.54-26.3,63.54-36.66,23.06-10.22,46.65-17.75,69.82-22.75,1.45-.32,2.89-.64,4.33-.96,1.31-.27,2.62-.53,3.93-.79,2.6-.52,5.18-1.05,7.76-1.57,5.14-1.05,10.21-2.11,15.22-3.2,10.02-2.16,19.77-4.41,29.3-6.75,19.05-4.66,37.33-9.7,54.71-14.42,4.27-1.16,8.47-2.31,12.59-3.44,4.07-1.13,8.03-2.28,11.91-3.43,7.75-2.33,15.12-4.71,22.06-7.17,13.88-4.94,26.07-10.2,36.23-15.76,10.17-5.54,18.24-11.44,24.19-17.1,2.97-2.83,5.36-5.61,7.36-8.13,.92-1.3,1.85-2.49,2.58-3.64,.71-1.16,1.44-2.2,1.96-3.19,.54-.99,1.02-1.87,1.43-2.62,.36-.78,.67-1.44,.92-1.97,.5-1.07,.75-1.62,.75-1.62,0,0-.03,.6-.08,1.78-.03,.59-.06,1.33-.13,2.22-.11,.88-.25,1.9-.4,3.06-.15,1.17-.47,2.44-.75,3.88-.31,1.44-.78,2.96-1.26,4.65-1.1,3.31-2.57,7.12-4.68,11.21-4.23,8.16-10.91,17.48-20.09,26.77-9.16,9.32-20.71,18.67-34.16,27.67-6.73,4.5-13.94,8.91-21.57,13.23-3.82,2.15-7.73,4.3-11.75,6.4-2.01,1.06-4.04,2.1-6.1,3.14-2.01,1.01-4.04,2.03-6.09,3.07-16.34,8.16-34.19,16.62-53.75,24.46-9.77,3.92-19.93,7.66-30.39,11.15-5.23,1.75-10.53,3.44-15.89,5.06-2.68,.83-5.38,1.62-8.09,2.4-1.35,.39-2.7,.78-4.06,1.17-1.22,.37-2.44,.75-3.67,1.13-19.63,5.83-39.46,13.11-59.23,21.85-19.7,8.88-38.38,18.81-55.93,29.46-17.48,10.76-33.81,22.24-48.9,34.03-30.1,23.67-55.42,48.75-76.35,70.68-20.9,22-37.55,40.75-49.3,53.53-5.86,6.41-10.46,11.37-13.61,14.72-3.16,3.33-4.83,5.09-4.83,5.09Z"/><path class="cls-1" d="M981.83,261.6s1.86-.64,5.39-1.86c1.76-.59,3.94-1.31,6.51-2.17,2.56-.87,5.53-1.72,8.81-2.97,6.58-2.4,14.62-5.04,23.72-8.65,2.28-.86,4.63-1.74,7.06-2.66,2.42-.95,4.88-2.02,7.42-3.05,2.54-1.03,5.14-2.09,7.82-3.18,1.34-.52,2.68-1.11,4.03-1.72,1.35-.6,2.72-1.21,4.1-1.82,2.76-1.21,5.58-2.44,8.46-3.7,2.87-1.28,5.74-2.73,8.7-4.1,2.94-1.42,5.97-2.75,8.98-4.27,3-1.53,6.05-3.09,9.15-4.67,1.55-.78,3.11-1.57,4.68-2.36,1.54-.85,3.1-1.71,4.66-2.57,3.13-1.7,6.3-3.43,9.52-5.18,3.14-1.85,6.33-3.73,9.56-5.63,1.6-.96,3.27-1.83,4.85-2.86,1.59-1.01,3.19-2.03,4.8-3.05,1.61-1.01,3.23-2.03,4.86-3.05,.82-.51,1.63-1.01,2.45-1.52,.79-.55,1.59-1.09,2.39-1.64,3.2-2.19,6.43-4.37,9.7-6.55,3.16-2.31,6.35-4.64,9.58-6.99,.81-.58,1.62-1.16,2.43-1.74,.78-.62,1.56-1.24,2.34-1.86,1.56-1.24,3.14-2.48,4.71-3.72,1.57-1.25,3.2-2.45,4.75-3.74,1.52-1.31,3.05-2.63,4.59-3.95,1.54-1.3,3.09-2.61,4.65-3.93,.8-.63,1.51-1.36,2.25-2.04l2.22-2.08c2.94-2.8,6.1-5.45,8.85-8.44,1.43-1.45,2.87-2.9,4.31-4.36l2.18-2.18,2.11-2.3c11.32-12.22,22.16-25.96,33.87-39.82,11.7-13.86,24.48-27.67,38.53-39.39,3.57-2.89,7.07-5.74,10.74-8.33,1.82-1.3,3.59-2.64,5.43-3.85,1.84-1.19,3.66-2.38,5.47-3.55,1.79-1.2,3.64-2.26,5.46-3.32,1.82-1.05,3.63-2.1,5.42-3.14,1.83-.96,3.64-1.9,5.44-2.84,1.81-.92,3.56-1.89,5.37-2.69,14.31-6.84,28.08-11.62,40.75-15.05,12.67-3.43,24.26-5.53,34.45-6.77,5.07-.72,9.84-1.03,14.18-1.42,4.36-.29,8.35-.42,11.9-.57,3.58-.03,6.75-.03,9.48-.01,2.73,0,5.06,.17,6.93,.24,3.72,.21,5.69,.31,5.69,.31,0,0-1.81,.79-5.22,2.27-1.7,.75-3.83,1.58-6.29,2.71-2.46,1.1-5.29,2.37-8.46,3.79-3.13,1.49-6.6,3.15-10.4,4.96-3.74,1.93-7.82,3.84-12.07,6.18-8.57,4.48-18.05,9.91-28,16.33-9.96,6.41-20.4,13.84-30.7,22.4-1.32,1.03-2.55,2.18-3.83,3.28-1.27,1.11-2.56,2.22-3.85,3.34-1.24,1.16-2.49,2.34-3.76,3.52-1.26,1.17-2.54,2.33-3.74,3.59-1.22,1.22-2.45,2.45-3.69,3.69-1.24,1.23-2.38,2.56-3.59,3.83-2.43,2.52-4.72,5.28-7.08,7.99-9.32,11.11-18.29,23.89-28.22,38.18-4.98,7.15-10.24,14.65-16.04,22.34-5.8,7.68-12.15,15.54-19.28,23.26l-2.67,2.88-2.81,2.78c-1.88,1.84-3.76,3.66-5.63,5.49-3.69,3.73-7.7,6.94-11.59,10.26-.98,.82-1.96,1.64-2.93,2.46-.98,.81-1.94,1.65-2.96,2.38-2.02,1.5-4.04,2.99-6.04,4.48-2.02,1.47-4.02,2.93-6.02,4.39-2.02,1.41-4.11,2.7-6.15,4.03-2.05,1.31-4.1,2.61-6.13,3.91-1.02,.64-2.04,1.28-3.05,1.92-1.04,.59-2.08,1.17-3.11,1.75-4.15,2.32-8.25,4.61-12.34,6.79-4.16,2.03-8.29,4.01-12.37,5.93-1.02,.48-2.04,.96-3.05,1.44-1.03,.43-2.06,.86-3.09,1.29-2.05,.84-4.1,1.68-6.13,2.51-2.03,.82-4.05,1.63-6.05,2.44-2,.82-4.05,1.45-6.05,2.17-4.01,1.37-7.98,2.72-11.88,4.05-3.95,1.17-7.85,2.26-11.68,3.33-1.91,.53-3.81,1.05-5.7,1.57-1.9,.47-3.79,.88-5.67,1.31-3.74,.83-7.41,1.64-11.03,2.44-3.61,.75-7.2,1.28-10.69,1.89-3.5,.56-6.9,1.18-10.26,1.61-3.36,.38-6.65,.75-9.87,1.12-1.6,.17-3.18,.34-4.75,.51-1.56,.17-3.1,.32-4.64,.4-3.05,.18-6.03,.35-8.93,.52-2.89,.15-5.68,.32-8.4,.4-2.72,.01-5.36,.03-7.91,.04-10.15,.16-18.9-.48-25.98-.9-3.54-.17-6.7-.62-9.41-.9-2.71-.32-5.01-.6-6.87-.82-3.69-.49-5.64-.75-5.64-.75Z"/><path class="cls-1" d="M7.6,329.18s2.16-1.31,6.27-3.79c2.05-1.23,4.6-2.68,7.5-4.62,1.46-.94,3.03-1.95,4.7-3.02,.84-.53,1.7-1.09,2.59-1.66,.87-.6,1.77-1.22,2.69-1.86,1.84-1.27,3.77-2.61,5.81-4.02,.51-.35,1.02-.7,1.54-1.06,.51-.38,1.02-.76,1.54-1.15,1.04-.77,2.1-1.56,3.18-2.37,4.38-3.13,8.9-6.86,13.78-10.71,9.6-7.97,20.04-17.45,30.69-28.59,.67-.69,1.34-1.38,2.02-2.08,.66-.72,1.32-1.45,1.98-2.17,1.33-1.45,2.67-2.92,4.02-4.4,2.7-2.97,5.32-6.14,8.06-9.26,5.29-6.47,10.73-13.18,15.96-20.43,1.3-1.82,2.68-3.58,3.96-5.46,1.29-1.86,2.6-3.74,3.91-5.63,1.34-1.86,2.56-3.85,3.86-5.78,1.31-1.99,2.63-3.99,3.96-6.01,5.53-8.37,11.22-16.97,17.04-25.79,11.5-17.39,22.71-35.02,32.08-53.67,1.14-2.35,2.29-4.7,3.44-7.07,1.08-2.4,2.24-4.76,3.28-7.19,.53-1.21,1.06-2.43,1.58-3.65l.84-1.9,1.06-2.32c1.44-3.09,2.83-6.23,4.38-9.29,6.17-12.27,13.69-23.98,22.17-35.02,8.5-11.03,17.78-21.16,27.68-30.14,2.41-2.33,4.97-4.44,7.48-6.59,2.52-2.14,5.02-4.29,7.63-6.25,2.59-1.99,5.15-4,7.76-5.91,2.65-1.84,5.28-3.68,7.91-5.5,2.6-1.87,5.34-3.46,7.99-5.17,2.68-1.67,5.31-3.37,8.04-4.86,2.71-1.52,5.41-3.04,8.09-4.55,2.71-1.44,5.45-2.79,8.15-4.16,1.35-.68,2.71-1.36,4.05-2.03,1.37-.62,2.73-1.25,4.1-1.87,2.73-1.22,5.44-2.44,8.13-3.65,2.73-1.09,5.45-2.18,8.15-3.27,1.35-.53,2.7-1.06,4.04-1.59,1.34-.52,2.71-.97,4.06-1.45,21.57-7.7,42.54-12.66,62.2-15.75,19.67-3.09,38.06-4.33,54.74-4.5,33.39-.3,59.91,3.36,77.92,6.73,4.48,.91,8.47,1.72,11.93,2.43,3.44,.74,6.33,1.5,8.67,2.06,4.65,1.18,7.1,1.8,7.1,1.8,0,0-2.51,.28-7.28,.83-2.38,.27-5.32,.53-8.78,.95-3.45,.43-7.43,.93-11.91,1.49-17.84,2.35-43.47,6.41-73.81,14.04-15.16,3.83-31.49,8.61-48.43,14.71-16.94,6.1-34.49,13.53-51.92,22.57-1.09,.57-2.2,1.09-3.28,1.69-1.08,.6-2.16,1.2-3.24,1.8-2.16,1.19-4.34,2.4-6.52,3.6-2.14,1.28-4.28,2.56-6.44,3.86-1.08,.64-2.16,1.29-3.24,1.93-1.06,.68-2.12,1.37-3.18,2.06-2.12,1.38-4.28,2.72-6.4,4.13-2.09,1.45-4.18,2.9-6.29,4.37-2.14,1.41-4.15,3-6.22,4.53-2.04,1.56-4.19,3.02-6.16,4.68-2.01,1.61-4.03,3.24-6.06,4.86-1.96,1.69-3.93,3.39-5.9,5.1-2.01,1.66-3.88,3.48-5.79,5.26-1.9,1.79-3.87,3.53-5.67,5.43-7.51,7.32-14.45,15.27-20.9,23.63-6.42,8.37-12.22,16.98-17.11,25.85-1.23,2.21-2.32,4.48-3.51,6.69l-.88,1.67-1.05,2.11c-.73,1.45-1.45,2.9-2.17,4.34-1.44,2.89-3.02,5.7-4.52,8.52-1.55,2.8-3.16,5.54-4.75,8.28-6.5,10.86-13.52,20.99-20.68,30.39-7.17,9.41-14.45,18.1-21.6,26.27-7.15,8.18-14.16,15.86-20.93,23.25-1.64,1.8-3.55,3.83-5.33,5.73-1.82,1.91-3.56,3.85-5.42,5.67-1.84,1.83-3.66,3.65-5.46,5.45-1.79,1.81-3.69,3.49-5.51,5.21-7.29,6.87-14.78,13.03-22.04,18.78-3.74,2.77-7.32,5.54-10.97,8.07-1.83,1.25-3.64,2.49-5.43,3.72-.89,.61-1.78,1.21-2.67,1.82-.9,.57-1.8,1.15-2.7,1.71-14.24,9.14-27.82,16.1-39.97,21.43-6.16,2.53-11.81,4.91-17.19,6.71-1.33,.47-2.63,.93-3.9,1.38-.63,.22-1.26,.44-1.88,.66-.63,.19-1.25,.38-1.87,.57-2.46,.74-4.79,1.44-7.01,2.11-1.1,.33-2.18,.64-3.22,.95-1.06,.27-2.08,.52-3.07,.77-1.98,.49-3.83,.95-5.55,1.37-3.41,.89-6.37,1.4-8.73,1.87-4.72,.88-7.21,1.34-7.21,1.34Z"/><path class="cls-1" d="M1966.37-4.02s.06,.83,.18,2.46c.1,1.63,.34,4.06,.46,7.26,.21,6.4,.26,15.91-1.2,28.17-.19,1.53-.39,3.11-.59,4.73-.27,1.61-.55,3.26-.83,4.95-.51,3.41-1.33,6.92-2.11,10.62-1.75,7.35-3.89,15.34-6.92,23.69-2.98,8.36-6.62,17.19-11.09,26.26-4.49,9.06-9.76,18.39-15.85,27.84-12.17,18.91-27.67,38.23-46.28,56.97-9.31,9.37-19.36,18.63-30.18,27.6-2.72,2.22-5.43,4.51-8.24,6.69-1.4,1.1-2.81,2.21-4.21,3.32-1.43,1.09-2.86,2.18-4.3,3.27-2.88,2.22-5.79,4.3-8.72,6.42-2.94,2.12-5.89,4.25-8.87,6.39-23.96,16.77-49.88,32.71-76.48,48.49-13.19,7.83-26.62,15.8-40.24,23.88-3.34,2.03-6.7,4.06-10.07,6.11-1.68,1.02-3.37,2.04-5.06,3.06-1.67,1.04-3.33,2.08-5,3.12-3.33,2.09-6.73,4.14-10.04,6.27-3.31,2.13-6.63,4.27-9.96,6.41l-2.5,1.6-2.44,1.65c-1.63,1.09-3.25,2.19-4.87,3.28-3.24,2.18-6.51,4.32-9.62,6.58-3.15,2.22-6.29,4.44-9.43,6.65-3.05,2.28-6.08,4.56-9.11,6.82-1.51,1.14-3.04,2.24-4.52,3.4-1.46,1.17-2.91,2.34-4.37,3.51-2.89,2.35-5.85,4.62-8.68,6.98-2.79,2.39-5.57,4.77-8.34,7.14-2.71,2.45-5.4,4.89-8.08,7.31-21.2,19.75-39.67,41.1-55.54,62.88-15.73,21.87-28.98,44.1-39.64,65.9-10.8,21.75-19,43.03-25.49,62.9-6.35,19.91-10.82,38.44-13.95,54.95-3.13,16.51-4.91,30.99-6.07,42.9-1.02,11.91-1.5,21.26-1.69,27.61-.18,6.36-.27,9.71-.27,9.71,0,0-.69-3.28-2.01-9.52-1.27-6.26-2.87-15.56-4.35-27.69-1.34-12.13-2.48-27.1-2.39-44.59,.09-17.49,1.39-37.5,4.8-59.47,3.56-21.92,9.06-45.85,17.79-70.75,8.59-24.94,20.4-50.83,35.69-76.59,15.43-25.66,34.47-51.13,57.49-74.68,2.93-2.9,5.87-5.8,8.82-8.72,3.03-2.85,6.11-5.66,9.19-8.51,3.11-2.8,6.32-5.45,9.51-8.2,1.6-1.36,3.2-2.72,4.81-4.09,1.62-1.34,3.29-2.61,4.93-3.92,3.31-2.59,6.64-5.19,9.98-7.8,3.4-2.48,6.82-4.97,10.25-7.47,3.41-2.54,6.92-4.89,10.43-7.27,1.75-1.19,3.51-2.38,5.27-3.58l2.65-1.79,2.67-1.72c3.57-2.28,7.14-4.56,10.69-6.83,3.56-2.25,7.14-4.37,10.7-6.54,1.78-1.08,3.56-2.15,5.33-3.22,1.78-1.04,3.56-2.08,5.33-3.11,3.55-2.05,7.1-4.1,10.63-6.14,14.13-7.97,28.11-15.55,41.76-22.8,27.33-14.52,53.29-28.11,77.26-41.92,2.96-1.76,5.91-3.5,8.84-5.23,2.93-1.73,5.87-3.44,8.67-5.19,1.41-.87,2.82-1.74,4.22-2.6,1.39-.89,2.77-1.77,4.15-2.65,2.78-1.74,5.46-3.56,8.17-5.33,10.76-7.14,20.9-14.52,30.43-22,19.07-14.97,35.59-30.47,49.31-45.88,6.86-7.7,13.02-15.38,18.51-22.92,5.47-7.55,10.2-14.98,14.35-22.14,4.19-7.14,7.55-14.08,10.52-20.57,1.4-3.27,2.82-6.4,3.94-9.47,.59-1.53,1.17-3.02,1.73-4.47,.5-1.47,.99-2.91,1.47-4.31,3.79-11.21,5.81-20.32,7.04-26.53,.61-3.11,.94-5.5,1.23-7.11,.27-1.61,.41-2.44,.41-2.44Z"/></g></g><g class="cls-2"><g class="cls-3"><path class="cls-1" d="M838.21,319.78s-.34,2.64-.99,7.64c-.3,2.53-.88,5.59-1.54,9.25-.61,3.68-1.59,7.84-2.69,12.57-2.33,9.4-5.61,20.9-10.64,33.89-5.04,12.97-11.72,27.49-20.57,42.81-8.85,15.31-19.83,31.42-33.09,47.61-13.24,16.25-28.9,32.23-46.21,47.78-17.31,15.58-36.42,30.51-56.65,44.98-20.24,14.47-41.65,28.33-63.68,41.89-44.09,27.04-86.37,50.39-123.17,73.3-18.41,11.43-35.56,22.65-51,33.87-1.92,1.42-3.82,2.82-5.7,4.21-1.89,1.39-3.79,2.75-5.57,4.18-1.82,1.41-3.62,2.8-5.4,4.18-.89,.69-1.79,1.38-2.67,2.06-.86,.71-1.72,1.41-2.57,2.11-3.4,2.8-6.85,5.53-9.99,8.24-3.16,2.73-6.21,5.45-9.13,8.17-11.64,10.89-21.1,21.76-28.02,32.19-6.93,10.42-11.23,20.42-13.26,29.11-2.06,8.69-1.95,15.95-1.49,20.85,.29,2.44,.54,4.34,.82,5.59,.24,1.27,.36,1.92,.36,1.92,0,0-.34-.57-1-1.68-.7-1.11-1.59-2.82-2.71-5.14-2.11-4.65-4.78-12.04-5.51-22.22-.75-10.14,.73-22.89,5.31-36.7,4.55-13.82,12.04-28.63,22.1-43.57,2.52-3.73,5.2-7.48,8.02-11.24,2.84-3.79,5.82-7.39,8.87-11.17,.76-.94,1.53-1.88,2.3-2.83,.8-.92,1.6-1.85,2.4-2.78,1.62-1.86,3.25-3.73,4.9-5.62,1.64-1.92,3.37-3.75,5.1-5.62,1.74-1.87,3.5-3.75,5.27-5.65,14.34-15.02,30.71-29.86,48.57-44.42,35.72-29.18,77.5-56.63,121.18-83.43,43.68-26.81,85.05-50.89,120.35-75.25,17.64-12.17,33.92-24.23,48.29-36.5,14.42-12.25,27.22-24.55,38.32-36.46,11.09-11.92,20.45-23.46,28.25-34.01,7.79-10.57,13.91-20.2,18.78-28.24,2.36-4.05,4.54-7.65,6.22-10.87,1.74-3.2,3.27-5.91,4.35-8.16,2.29-4.48,3.49-6.84,3.49-6.84Z"/><path class="cls-1" d="M145.41,370.15s.69,2.3,2.01,6.67c.31,1.1,.71,2.33,1.06,3.7,.33,1.38,.7,2.88,1.1,4.51,.39,1.64,.83,3.4,1.24,5.3,.36,1.91,.75,3.94,1.15,6.09,.2,1.08,.41,2.2,.62,3.34,.19,1.15,.34,2.32,.51,3.54,.33,2.42,.7,4.97,1.02,7.65,.24,2.69,.49,5.49,.75,8.41,.25,2.93,.3,5.97,.45,9.14,.38,12.67-.26,27.26-2.76,43.29-2.44,16.03-6.93,33.44-13.79,51.47-1.64,4.55-3.65,9.01-5.6,13.62-.98,2.3-2.11,4.52-3.18,6.82-1.1,2.27-2.16,4.61-3.35,6.87-1.19,2.26-2.39,4.54-3.6,6.83-.61,1.14-1.21,2.31-1.85,3.44-.65,1.13-1.3,2.26-1.95,3.39-1.31,2.27-2.63,4.55-3.96,6.84-1.39,2.24-2.8,4.5-4.21,6.77-11.36,18.14-24.77,35.83-39.36,53.15-14.61,17.29-30.48,34.14-46.93,50.68-16.46,16.54-32.71,32.03-48.1,46.91-15.44,14.86-29.92,29.16-43.17,43.1-13.27,13.92-25.03,27.6-35.25,40.96-5.14,6.67-9.73,13.32-14.03,19.83-4.23,6.41-7.84,12.71-10.94,18.93-6.18,12.41-10.04,24.36-11.6,35.23-1.6,10.86-.82,20.59,.99,28.48,1.8,7.91,4.55,13.91,6.56,17.9,.52,.99,.96,1.89,1.38,2.64,.43,.74,.79,1.37,1.08,1.87,.58,1.02,.88,1.54,.88,1.54,0,0-.47-.37-1.4-1.08-.46-.36-1.04-.82-1.72-1.36-.67-.55-1.42-1.23-2.29-2-3.4-3.1-8.39-7.98-13.26-15.76-2.43-3.88-4.81-8.47-6.83-13.8-2.01-5.32-3.71-11.38-4.71-18.03-2.09-13.31-1.55-28.91,1.96-45.33,1.75-8.19,4.2-16.67,7.34-25.14,3.11-8.34,6.65-16.95,10.85-25.53,8.34-17.21,18.79-34.75,31.02-51.92,24.38-34.51,55.36-67.89,87.92-100.54,16.28-16.37,32.16-31.88,47.01-46.95,14.81-15.08,28.71-29.68,40.93-44.13,1.53-1.81,3.05-3.6,4.57-5.38,1.46-1.81,2.91-3.61,4.35-5.39,.73-.89,1.45-1.78,2.17-2.67,.71-.89,1.38-1.8,2.07-2.69,1.37-1.79,2.74-3.57,4.09-5.33,1.37-1.76,2.58-3.57,3.88-5.33,1.26-1.78,2.6-3.51,3.78-5.29,2.36-3.56,4.84-7.02,6.98-10.58,8.91-14.07,16.21-27.98,21.86-41.27,5.69-13.27,9.89-25.85,12.96-37.19,.71-2.84,1.52-5.59,2.12-8.26,.6-2.69,1.18-5.27,1.74-7.75,.5-2.49,.92-4.89,1.36-7.19,.21-1.15,.45-2.27,.62-3.37,.16-1.1,.32-2.17,.48-3.21,.32-2.1,.62-4.08,.91-5.94,.22-1.87,.43-3.62,.62-5.25,.19-1.64,.37-3.15,.54-4.53,.15-1.39,.22-2.64,.33-3.77,.4-4.53,.6-6.92,.6-6.92Z"/><path class="cls-1" d="M961.3,452.07s-2.3,1.58-6.65,4.59c-4.4,2.89-10.67,7.5-18.5,13.49-1.92,1.55-3.95,3.18-6.08,4.9-1.06,.86-2.16,1.71-3.26,2.62-1.08,.94-2.18,1.91-3.3,2.89-2.24,1.96-4.57,3.99-7,6.11-2.33,2.21-4.76,4.5-7.27,6.87-9.89,9.61-20.5,21.02-31.03,34.41-10.54,13.39-21.02,28.71-30.91,45.87-1.21,2.16-2.42,4.35-3.65,6.55-.61,1.1-1.23,2.2-1.84,3.31-.59,1.13-1.18,2.26-1.77,3.39-1.18,2.26-2.38,4.54-3.58,6.84-1.15,2.33-2.3,4.68-3.46,7.04-4.6,9.52-9.14,19.46-13.5,29.88-8.84,20.76-17.27,43.31-26.57,67.13-4.66,11.92-9.57,24.16-14.92,36.61-5.35,12.44-11.15,25.11-17.7,37.79-13.15,25.4-28.23,49.01-44.38,70.45-2.04,2.67-4.07,5.32-6.08,7.96-1.01,1.32-2.02,2.63-3.03,3.94-1.06,1.27-2.12,2.54-3.17,3.8-4.24,5.02-8.43,10-12.59,14.93-4.36,4.72-8.68,9.4-12.95,14.02-1.07,1.15-2.14,2.29-3.21,3.44-1.06,1.14-2.2,2.21-3.3,3.31-2.21,2.18-4.41,4.34-6.59,6.5-8.6,8.73-17.68,16.5-26.29,24.21-4.42,3.74-8.87,7.3-13.21,10.84-2.18,1.76-4.33,3.5-6.48,5.23-2.16,1.71-4.39,3.29-6.55,4.92-4.35,3.2-8.63,6.35-12.83,9.44-2.07,1.57-4.25,2.97-6.37,4.4-2.12,1.42-4.22,2.83-6.3,4.22-2.08,1.38-4.14,2.75-6.18,4.11-1.02,.67-2.03,1.35-3.04,2.01-1,.68-2.01,1.33-3.05,1.94-4.1,2.47-8.11,4.89-12.02,7.26-1.96,1.17-3.89,2.33-5.8,3.47-.96,.57-1.9,1.13-2.85,1.69-.95,.54-1.92,1.05-2.88,1.58-3.81,2.06-7.53,4.07-11.15,6.02-3.62,1.92-7.1,3.85-10.55,5.57-3.48,1.67-6.84,3.29-10.1,4.85-12.91,6.39-24.47,10.96-33.78,14.83-1.17,.48-2.3,.94-3.4,1.39-1.1,.44-2.2,.82-3.25,1.21-2.11,.76-4.08,1.48-5.91,2.14-3.65,1.3-6.75,2.4-9.25,3.29-5,1.72-7.64,2.63-7.64,2.63,0,0,2.21-1.71,6.4-4.95,2.1-1.6,4.7-3.58,7.77-5.91,1.54-1.16,3.19-2.4,4.96-3.73,.88-.67,1.81-1.33,2.73-2.06,.92-.74,1.87-1.5,2.84-2.28,7.77-6.3,17.42-13.62,28.07-22.81,2.69-2.24,5.47-4.56,8.34-6.96,2.84-2.42,5.68-5.05,8.65-7.66,2.96-2.62,6-5.31,9.13-8.07,.78-.69,1.56-1.38,2.35-2.08,.77-.73,1.54-1.46,2.32-2.19,1.55-1.46,3.13-2.95,4.72-4.45,3.18-2.98,6.44-6.02,9.78-9.14,.84-.76,1.66-1.56,2.47-2.39,.81-.81,1.63-1.63,2.46-2.46,1.65-1.64,3.31-3.3,4.99-4.97,1.68-1.67,3.38-3.35,5.1-5.05,1.71-1.7,3.48-3.36,5.14-5.19,3.38-3.56,6.82-7.18,10.32-10.87,1.74-1.85,3.54-3.65,5.28-5.56,1.72-1.92,3.44-3.86,5.19-5.82,3.47-3.91,7.06-7.81,10.61-11.84,6.86-8.29,14.21-16.51,21.08-25.47,1.76-2.2,3.53-4.42,5.31-6.64,.88-1.12,1.81-2.2,2.66-3.36,.85-1.15,1.71-2.3,2.57-3.46,3.46-4.6,6.95-9.25,10.48-13.95,3.37-4.8,6.78-9.65,10.22-14.55,.87-1.22,1.73-2.44,2.6-3.66,.82-1.26,1.65-2.51,2.47-3.78,1.66-2.51,3.32-5.04,5-7.58,13.32-20.33,26.02-41.92,37.81-64.67,5.9-11.41,11.47-23.01,16.94-34.64,5.51-11.8,10.93-23.43,16.27-34.87,10.85-23.17,21.95-45.94,34.22-67.16,6.07-10.62,12.5-20.81,19.11-30.52,1.68-2.42,3.35-4.82,5.01-7.2,1.71-2.35,3.45-4.65,5.15-6.95,.86-1.14,1.71-2.28,2.56-3.41,.86-1.12,1.76-2.22,2.64-3.32,1.76-2.19,3.51-4.36,5.24-6.52,14.15-17.02,28.94-31.47,43.37-43.36,14.43-11.9,28.52-21.21,41.25-28.47,3.21-1.75,6.31-3.45,9.3-5.08,3.04-1.53,5.99-2.93,8.8-4.28,1.4-.67,2.78-1.33,4.12-1.97,1.36-.61,2.72-1.16,4.02-1.71,2.61-1.09,5.1-2.13,7.46-3.11,9.53-3.66,16.95-6.17,22.11-7.57,5.1-1.45,7.78-2.22,7.78-2.22Z"/><path class="cls-1" d="M400.57,479.09s-2,2.44-5.79,7.07c-3.83,4.6-9.47,11.38-16.72,20.1-7.26,8.7-16.16,19.3-26.31,31.65-10.15,12.34-21.54,26.45-33.52,42.24-11.91,15.83-24.5,33.32-36.23,52.65-11.7,19.3-22.68,40.43-30.41,63.08-3.84,11.33-6.84,22.98-8.78,34.94-.29,1.48-.46,3.01-.66,4.53-.21,1.52-.41,3.04-.62,4.57-.15,1.55-.3,3.1-.46,4.65-.16,1.55-.33,3.1-.41,4.69-.21,3.16-.46,6.31-.54,9.55-.05,1.61-.16,3.21-.17,4.84-.02,1.63-.04,3.27-.06,4.91-.13,13.13,.67,26.87,1.77,41.1,1.15,14.26,2.7,29.06,4.14,44.45,1.43,15.4,2.72,31,3.21,46.83,.29,7.88,.28,15.87,.12,23.82-.17,4.01-.23,7.96-.54,11.97-.13,2-.27,3.99-.4,5.98-.19,2-.38,4-.57,5.99-1.55,15.92-4.63,31.79-9.25,46.95-2.26,7.6-5.05,14.91-7.96,21.99-1.55,3.49-3.08,6.97-4.7,10.36-.84,1.68-1.67,3.35-2.51,5.01l-1.25,2.49-1.32,2.43c-7,12.96-14.8,24.77-22.94,35.61-8.15,10.83-16.63,20.69-25.15,29.76-17.05,18.14-34.22,33.16-50.26,46.12-16.06,12.95-31.06,23.8-44.39,33.04-13.33,9.23-24.99,16.83-34.58,22.95-9.59,6.12-17.11,10.74-22.22,13.86-5.13,3.09-7.83,4.72-7.83,4.72,0,0,2.12-2.33,6.16-6.75,4.07-4.39,10.07-10.86,17.78-19.17,7.72-8.29,17.18-18.4,27.98-30.19,10.8-11.78,22.96-25.24,35.78-40.37,6.39-7.57,12.98-15.55,19.56-23.96,6.57-8.43,13.16-17.29,19.58-26.6,12.81-18.6,24.96-39.09,33.98-61.23,9.17-22.23,14.2-45.4,15.21-71.4,.06-1.62,.13-3.25,.2-4.88,.02-1.65,.04-3.3,.06-4.95,.09-3.29-.03-6.68-.03-10.03-.17-6.79-.41-13.66-.88-20.72-.85-14.07-2.28-28.73-3.69-43.93-1.42-15.21-2.8-30.64-3.59-46.25-.74-15.63-.98-31.41,.09-47.24,.14-1.98,.29-3.95,.43-5.92,.14-1.97,.39-3.95,.58-5.92,.36-3.93,.92-7.88,1.48-11.79,.25-1.95,.6-3.91,.95-5.86,.35-1.95,.69-3.89,1.04-5.83,.42-1.94,.84-3.87,1.25-5.8,.42-1.93,.82-3.84,1.34-5.75,3.82-15.31,9.14-29.77,15.35-43.09,6.21-13.34,13.36-25.56,20.86-36.85,7.51-11.28,15.42-21.62,23.41-31.16,15.99-19.1,32.34-35.02,47.62-48.89,15.35-13.8,29.72-25.48,42.53-35.41,12.81-9.94,24.05-18.16,33.29-24.78,9.24-6.62,16.5-11.65,21.44-15.04,4.95-3.36,7.56-5.13,7.56-5.13Z"/><path class="cls-1" d="M859.3,867.95s-.62,1.56-1.8,4.5c-.61,1.47-1.32,3.32-2.27,5.46-1.02,2.11-2.2,4.55-3.52,7.28-.65,1.39-1.43,2.79-2.26,4.26-.83,1.48-1.7,3.03-2.61,4.65-.47,.81-.91,1.66-1.43,2.48-.52,.82-1.04,1.66-1.58,2.51-1.09,1.71-2.22,3.49-3.38,5.32-1.17,1.84-2.51,3.64-3.84,5.56-.67,.95-1.36,1.92-2.05,2.9-.69,.99-1.41,1.98-2.17,2.94-1.52,1.96-3.08,3.97-4.68,6.03-.79,1.05-1.63,2.07-2.5,3.09-.86,1.03-1.74,2.06-2.62,3.11-3.5,4.26-7.42,8.44-11.49,12.87-2.09,2.15-4.23,4.33-6.4,6.56-2.17,2.25-4.49,4.38-6.81,6.63-9.34,8.89-19.75,17.91-31.07,26.85-11.31,8.93-23.58,17.79-36.48,26.46-12.9,8.68-26.46,17.21-40.42,25.63-27.95,16.82-54.76,31.75-78.57,45.99-11.91,7.11-23.12,14.01-33.43,20.73-10.26,6.69-19.53,13.25-27.68,19.64-16.29,12.75-27.68,25.18-33.85,35.09-.85,1.2-1.48,2.42-2.13,3.54-.62,1.14-1.3,2.18-1.77,3.2-.49,1.03-.93,1.97-1.35,2.84-.41,.87-.83,1.66-1.07,2.4-1.12,2.95-1.71,4.51-1.71,4.51,0,0,.1-1.68,.3-4.86,.02-.81,.2-1.69,.35-2.67,.16-.99,.33-2.07,.52-3.23,.18-1.18,.56-2.39,.87-3.73,.34-1.33,.66-2.77,1.18-4.22,1.8-5.95,4.88-12.99,9.33-20.66,4.46-7.66,10.31-15.95,17.53-24.37,7.21-8.44,15.7-17.12,25.29-25.79,9.54-8.64,20.14-17.38,31.58-26.09,22.89-17.45,49.25-34.57,77.1-51.33,27.87-16.79,54.47-31.86,77.96-46.47,11.75-7.3,22.76-14.46,32.87-21.42,2.5-1.76,5.05-3.42,7.42-5.18,2.4-1.73,4.76-3.43,7.08-5.1,4.52-3.44,8.97-6.67,13.01-9.97,1.02-.81,2.04-1.62,3.04-2.41,1.01-.79,1.99-1.58,2.93-2.39,1.9-1.6,3.76-3.17,5.56-4.69,.92-.75,1.79-1.52,2.63-2.29,.85-.77,1.69-1.52,2.52-2.27,1.64-1.5,3.31-2.9,4.8-4.35,1.5-1.45,2.95-2.85,4.35-4.2,.7-.68,1.39-1.34,2.07-1.99,.68-.65,1.28-1.33,1.91-1.97,1.24-1.3,2.44-2.54,3.57-3.73,1.15-1.18,2.25-2.31,3.2-3.44,1.97-2.23,3.72-4.22,5.24-5.94,1.47-1.76,2.66-3.31,3.66-4.53,2-2.46,3.05-3.77,3.05-3.77Z"/><path class="cls-1" d="M497.63,776.07s.14,1.45,.33,4.24c.09,1.39,.22,3.12,.29,5.17,.05,2.04,.08,4.39,.09,7.06-.05,10.63-1.15,26.17-5.6,45.01-4.4,18.81-12.46,40.8-25.04,63.09-12.5,22.32-29.47,44.78-49.65,65.11-20.18,20.37-41.38,36.78-60.7,50.61-19.34,13.83-36.9,25.14-50.39,35.43-3.34,2.58-6.53,5.07-9.34,7.52-.73,.61-1.42,1.22-2.08,1.83-.67,.61-1.34,1.21-1.99,1.81-1.23,1.21-2.52,2.38-3.6,3.57-2.32,2.35-4.19,4.67-5.92,6.91-1.61,2.26-3.05,4.45-4.08,6.54-2.16,4.18-3.22,7.95-3.73,10.59-.29,1.32-.35,2.35-.47,3.06-.1,.71-.15,1.08-.15,1.08,0,0-.18-.32-.52-.94-.32-.63-.91-1.57-1.46-2.88-1.16-2.61-2.58-6.74-3.08-12.51-.28-2.89-.19-6.1,.13-9.66,.42-3.49,1.08-7.35,2.21-11.27,.51-2.02,1.21-3.97,1.9-6.07,.36-1.02,.76-2.04,1.16-3.09,.39-1.06,.82-2.11,1.27-3.14,1.76-4.25,3.9-8.49,6.26-12.88,9.53-17.47,23.31-35.6,39.06-53.93,15.79-18.34,33.6-36.89,52.1-55.58,18.52-18.68,35.96-35.89,51.26-52.26,15.33-16.31,28.55-31.8,39.13-45.73,10.59-13.9,18.71-26.11,24.17-34.84,1.36-2.19,2.57-4.15,3.63-5.85,1.03-1.72,1.91-3.18,2.62-4.36,1.45-2.37,2.22-3.62,2.22-3.62Z"/><path class="cls-1" d="M106.67,831.67s.14,1.45,.33,4.24c.09,1.39,.22,3.12,.29,5.17,.05,2.04,.08,4.39,.09,7.06-.05,10.63-1.15,26.17-5.6,45.01-4.4,18.81-12.46,40.8-25.04,63.09-12.5,22.32-29.47,44.78-49.65,65.11-20.18,20.37-41.38,36.78-60.7,50.61-19.34,13.83-36.9,25.14-50.39,35.43-3.34,2.58-6.53,5.07-9.34,7.52-.73,.61-1.42,1.22-2.08,1.83-.67,.61-1.34,1.21-1.99,1.81-1.23,1.21-2.52,2.38-3.6,3.57-2.32,2.35-4.19,4.67-5.92,6.91-1.61,2.26-3.05,4.45-4.08,6.54-2.16,4.18-3.22,7.95-3.73,10.59-.29,1.32-.35,2.35-.47,3.06-.1,.71-.15,1.08-.15,1.08,0,0-.18-.32-.52-.94-.32-.63-.91-1.57-1.46-2.88-1.16-2.61-2.58-6.74-3.08-12.51-.28-2.89-.19-6.1,.13-9.66,.42-3.49,1.08-7.35,2.21-11.27,.51-2.02,1.21-3.97,1.9-6.07,.36-1.02,.76-2.04,1.16-3.09,.39-1.06,.82-2.11,1.27-3.14,1.76-4.25,3.9-8.49,6.26-12.88,9.53-17.47,23.31-35.6,39.06-53.93,15.79-18.34,33.6-36.89,52.1-55.58,18.52-18.68,35.96-35.89,51.26-52.26,15.33-16.31,28.55-31.8,39.13-45.73,10.59-13.9,18.71-26.11,24.17-34.84,1.36-2.19,2.57-4.15,3.63-5.85,1.03-1.72,1.91-3.18,2.62-4.36,1.45-2.37,2.22-3.62,2.22-3.62Z"/><path class="cls-1" d="M1103.33,458.26s-1.06,1.28-3.06,3.71c-2,2.43-5.04,5.89-8.8,10.47-7.61,9.04-18.55,22.09-31.16,38.39-6.34,8.12-13.03,17.1-19.86,26.81-6.84,9.71-13.79,20.17-20.53,31.32-3.4,5.55-6.65,11.34-9.92,17.22-3.15,5.95-6.36,11.98-9.28,18.24l-1.13,2.34-1.08,2.37c-.72,1.58-1.44,3.17-2.17,4.76-1.37,3.22-2.81,6.43-4.11,9.72-2.66,6.56-5.21,13.25-7.5,20.13-4.62,13.75-8.36,27.47-11.32,41.16-2.99,13.67-5.33,27.26-7.43,40.59-2.12,13.32-4.04,26.34-6.32,38.74-2.25,12.38-4.9,24.14-8.11,34.75-3.25,10.61-7.05,20.05-11.18,27.89-4.09,7.87-8.39,14.15-12.21,18.94-.47,.6-.93,1.18-1.38,1.75-.47,.55-.93,1.07-1.38,1.59-.9,1.02-1.71,1.97-2.5,2.83-1.64,1.68-2.97,3.11-4.14,4.19-2.33,2.12-3.56,3.25-3.56,3.25,0,0,.63-1.53,1.82-4.43,.6-1.44,1.23-3.27,2.02-5.36,.38-1.06,.74-2.22,1.15-3.44,.2-.61,.41-1.24,.62-1.88,.19-.66,.38-1.33,.58-2.03,1.62-5.53,3.19-12.33,4.28-20.22,1.13-7.88,1.67-16.89,1.73-26.89,.03-10.02-.45-21.05-1.09-33.16-.62-12.09-1.36-25.28-1.48-39.49-.13-14.2,.42-29.48,2.44-45.42,1.98-15.94,5.59-32.54,11.13-48.98,2.74-8.23,5.99-16.19,9.53-23.85,1.74-3.85,3.66-7.57,5.54-11.26,.97-1.83,1.98-3.63,2.97-5.43,.5-.9,1-1.79,1.5-2.68,.52-.88,1.04-1.75,1.56-2.62,4.09-7.02,8.57-13.59,13.06-19.91,4.6-6.24,9.24-12.2,14.05-17.73,9.56-11.13,19.41-20.85,29.02-29.36,9.61-8.51,18.97-15.84,27.78-22.09,17.56-12.57,32.67-21.11,43.26-26.67,5.26-2.83,9.48-4.8,12.31-6.18,2.84-1.34,4.34-2.05,4.34-2.05Z"/><path class="cls-1" d="M860.92,984.28s2.42-1.34,7.01-3.88c2.3-1.25,5.15-2.79,8.51-4.61,3.36-1.81,7.25-3.85,11.56-6.31,4.32-2.39,9.12-5.05,14.37-7.96,5.23-2.92,10.84-6.24,16.9-9.66,12.08-6.95,25.61-15.11,40.31-24.28,14.58-9.38,30.41-19.66,46.61-31.47,16.21-11.8,32.94-24.89,49.4-39.5l1.56-1.35,1.52-1.41c1.01-.94,2.03-1.88,3.05-2.82,2.04-1.88,4.08-3.77,6.14-5.67,2-1.95,4-3.91,6.02-5.88,1.01-.98,2.02-1.96,3.04-2.95,.98-1.02,1.96-2.03,2.95-3.05,1.97-2.03,3.95-4.07,5.95-6.12,1.92-2.1,3.84-4.22,5.78-6.34,1.98-2.09,3.83-4.28,5.7-6.47,1.86-2.2,3.83-4.33,5.6-6.61,14.77-17.85,27.98-37.47,38.65-58.7,2.59-5.34,5.13-10.66,7.35-16.08,1.17-2.68,2.19-5.42,3.27-8.13,1-2.75,2.04-5.46,2.97-8.24,.48-1.38,.96-2.76,1.41-4.16,.48-1.45,.85-2.62,1.52-4.56,1.22-3.53,2.44-7.06,3.7-10.54,1.39-3.35,2.78-6.68,4.16-10l1.05-2.48c.36-.81,.76-1.6,1.14-2.39,.77-1.58,1.53-3.17,2.29-4.74,12.26-25.19,27.12-46.8,42.6-65.88,15.52-19.06,31.73-35.5,47.37-50.16,4.01-3.54,7.96-7.02,11.83-10.43,1.94-1.69,3.86-3.37,5.76-5.03,1.89-1.67,3.89-3.18,5.8-4.75,3.85-3.08,7.63-6.11,11.33-9.06,1.86-1.46,3.67-2.94,5.51-4.34,1.86-1.37,3.7-2.72,5.52-4.05,3.64-2.65,7.2-5.23,10.66-7.75,1.73-1.25,3.45-2.48,5.13-3.7,1.67-1.23,3.43-2.32,5.1-3.46,6.74-4.48,13.11-8.67,19.07-12.54,.75-.48,1.49-.96,2.22-1.43,.75-.45,1.49-.9,2.23-1.34,1.47-.88,2.92-1.75,4.34-2.6,2.84-1.69,5.57-3.31,8.18-4.87,2.62-1.54,5.12-3.02,7.51-4.42,2.4-1.39,4.64-2.76,6.86-3.91,17.61-9.48,27.44-14.38,27.44-14.38,0,0-7.65,8.04-21.65,21.98-1.77,1.71-3.54,3.65-5.43,5.63-1.89,1.98-3.87,4.06-5.95,6.23-2.08,2.16-4.24,4.41-6.49,6.75-1.13,1.16-2.27,2.35-3.44,3.56-.58,.6-1.18,1.21-1.77,1.82-.58,.63-1.16,1.27-1.75,1.91-4.7,5.16-9.73,10.63-15.07,16.39-1.32,1.45-2.72,2.86-4.03,4.4-1.33,1.52-2.67,3.06-4.03,4.62-2.73,3.11-5.53,6.29-8.39,9.55-1.44,1.62-2.89,3.26-4.36,4.92-1.44,1.68-2.85,3.43-4.3,5.16-2.89,3.47-5.85,7.01-8.87,10.62-1.49,1.82-3.08,3.58-4.54,5.47-1.48,1.88-2.96,3.78-4.47,5.7-3.01,3.81-6.08,7.68-9.21,11.62-12.05,16.05-24.53,33.29-36.23,51.95-2.83,4.7-5.69,9.45-8.59,14.25-2.69,4.86-5.41,9.78-8.16,14.74-1.26,2.51-2.53,5.03-3.81,7.57-1.25,2.54-2.66,5.04-3.76,7.63-2.31,5.15-4.82,10.3-6.81,15.56-.53,1.31-1.07,2.62-1.6,3.93-.26,.66-.55,1.31-.8,1.97l-.69,1.98c-.93,2.63-1.87,5.26-2.8,7.91-1.74,5.88-3.49,11.81-5.25,17.78-1.03,3.45-2.22,6.91-3.4,10.37-1.26,3.44-2.48,6.92-3.89,10.34-2.69,6.89-5.82,13.65-9.1,20.37-13.43,26.76-30.72,50.29-49.57,70.21-2.3,2.56-4.76,4.91-7.14,7.33-2.39,2.4-4.77,4.8-7.25,7.04-2.45,2.27-4.9,4.52-7.33,6.77-2.5,2.14-4.99,4.28-7.47,6.4-1.24,1.05-2.48,2.1-3.71,3.15-1.27,1-2.53,2-3.79,3-2.52,1.98-5.03,3.96-7.52,5.92-2.53,1.9-5.08,3.73-7.6,5.57-1.26,.91-2.52,1.83-3.78,2.74l-1.88,1.36-1.91,1.29c-20.26,13.93-40.45,25.26-59.71,34.71-19.27,9.46-37.74,16.8-54.64,23.07-17,6.04-32.51,10.89-46.24,14.65-6.88,1.83-13.25,3.59-19.17,5.01-5.92,1.35-11.34,2.59-16.21,3.71-4.85,1.13-9.22,1.95-12.99,2.67-3.77,.7-6.97,1.3-9.55,1.78-5.16,.91-7.88,1.4-7.88,1.4Z"/><path class="cls-1" d="M1542.1,662.19s3.34,7.55,8.7,21.4c5.32,13.87,12.78,34,19.75,59.92,3.44,12.97,6.71,27.42,9.18,43.31,1.2,7.95,2.22,16.26,2.92,24.91,.66,8.66,1.04,17.66,.96,26.96-.12,9.31-.67,18.91-1.78,28.74-1.11,9.83-2.9,19.87-5.32,30.01-2.44,10.13-5.53,20.36-9.48,30.46-3.92,10.11-8.61,20.12-13.93,29.78-5.31,9.69-11.22,18.76-17.41,27.33-6.19,8.56-12.68,16.62-19.4,24.11-6.71,7.5-13.53,14.58-20.49,21.12-1.72,1.66-3.46,3.28-5.21,4.85-1.74,1.58-3.47,3.16-5.21,4.7-3.51,3.03-6.96,6.06-10.46,8.89-13.92,11.48-27.72,21.38-40.92,30.05-13.2,8.67-25.79,16.13-37.44,22.58-23.31,12.88-42.81,21.87-56.41,27.86-6.81,2.98-12.14,5.2-15.77,6.67-3.64,1.45-5.56,2.21-5.56,2.21,0,0,1.41-1.51,4.08-4.38,2.69-2.85,6.66-7.03,11.8-12.34,10.26-10.64,25.25-25.81,43.37-44.35,9.05-9.28,18.88-19.42,29.16-30.33,10.29-10.91,21.05-22.59,31.83-35.04,21.55-24.86,43.44-52.71,60.53-83.51,4.25-7.71,8.07-15.4,11.52-23.15,3.47-7.74,6.44-15.6,9.11-23.46,2.65-7.87,5.01-15.76,6.96-23.67,1.96-7.9,3.62-15.79,5.05-23.61,5.58-31.31,7.08-61.44,7.96-87.13,.75-25.72,.86-47.07,1.19-61.84,.29-14.79,.7-23.06,.7-23.06Z"/><path class="cls-1" d="M1720.09,584.41s0,1.26,0,3.64c-.03,2.38-.08,5.87-.14,10.33-.15,8.92-.37,21.69-.64,37.17-.05,7.74-.19,16.14-.17,25.09-.06,8.94,.03,18.41,.15,28.29,.08,9.88,.38,20.16,.7,30.75,.13,5.29,.4,10.66,.57,16.1,.26,5.43,.53,10.93,.8,16.5,.59,11.12,1.22,21.95,2.02,32.44,.85,10.48,1.72,20.63,2.76,30.34,2.09,19.42,4.68,37.14,7.26,52.26,2.59,15.1,5.16,27.55,6.95,36.27,.93,4.34,1.65,7.75,2.15,10.07,.46,2.33,.7,3.57,.7,3.57,0,0-.88-.9-2.54-2.59-1.63-1.72-4.1-4.25-7.08-7.66-5.92-6.83-14.18-17.08-22.79-30.93-8.58-13.84-17.51-31.33-24.54-51.94-3.5-10.3-6.47-21.36-8.82-32.98-2.29-11.63-3.81-23.83-4.48-36.36-.13-3.13-.31-6.25-.32-9.34-.02-3.09-.02-6.17,0-9.22,.19-6.09,.44-12.09,.99-17.96,1.04-11.73,2.71-22.96,4.98-33.48,2.23-10.53,4.88-20.4,7.83-29.46,2.88-9.08,6.09-17.35,9.17-24.81,6.3-14.88,12.48-26.39,17.06-34.17,2.24-3.91,4.16-6.86,5.43-8.87,1.3-1.99,1.99-3.04,1.99-3.04Z"/><path class="cls-1" d="M1409.79,710.73s-1.16,1.59-3.36,4.61c-1.11,1.49-2.48,3.33-4.1,5.5-1.61,2.18-3.55,4.57-5.54,7.47-4.03,5.73-9.12,12.49-14.52,20.65-1.38,2.01-2.81,4.08-4.28,6.22-1.44,2.16-2.85,4.44-4.35,6.74-1.49,2.3-3.02,4.66-4.6,7.08-.8,1.19-1.57,2.44-2.32,3.71-.77,1.26-1.54,2.54-2.32,3.84-1.57,2.57-3.18,5.19-4.83,7.87-1.62,2.69-3.15,5.52-4.79,8.34-1.6,2.84-3.33,5.66-4.93,8.64-1.59,2.97-3.2,5.99-4.84,9.06-.82,1.53-1.65,3.06-2.49,4.61-.78,1.58-1.56,3.17-2.36,4.78-1.59,3.18-3.21,6.41-4.85,9.69-1.52,3.32-3.07,6.68-4.63,10.08-.77,1.7-1.64,3.37-2.34,5.12-.73,1.74-1.46,3.49-2.2,5.25-.75,1.75-1.5,3.51-2.25,5.28-.38,.88-.76,1.77-1.14,2.65-.34,.9-.68,1.81-1.02,2.71-1.37,3.62-2.78,7.26-4.22,10.92-1.28,3.7-2.56,7.44-3.86,11.21-.33,.94-.66,1.88-1,2.82-.28,.95-.57,1.91-.86,2.86-.58,1.91-1.16,3.82-1.74,5.75-.57,1.92-1.23,3.84-1.76,5.78-.5,1.95-1,3.9-1.51,5.86-.52,1.95-1.04,3.91-1.57,5.88-.3,.98-.46,1.97-.68,2.96-.21,.99-.42,1.98-.63,2.98-.82,3.98-1.89,7.95-2.44,11.98-.35,2.01-.7,4.02-1.05,6.04l-.55,3.03-.42,3.09c-2.31,16.49-3.35,33.96-5.05,52.03-1.68,18.06-4.28,36.7-9.12,54.34-1.28,4.41-2.52,8.75-4.06,12.97-.76,2.11-1.44,4.22-2.26,6.26-.82,2.03-1.64,4.04-2.46,6.04-.79,2.01-1.69,3.94-2.58,5.85-.89,1.91-1.78,3.8-2.66,5.67-.95,1.83-1.9,3.64-2.84,5.44-.96,1.78-1.84,3.58-2.87,5.28-7.84,13.79-16.41,25.58-24.84,35.64-8.44,10.06-16.75,18.4-24.4,25.24-3.74,3.49-7.49,6.47-10.83,9.26-3.41,2.73-6.61,5.11-9.44,7.27-2.92,2.07-5.52,3.88-7.78,5.43-2.24,1.56-4.25,2.75-5.82,3.76-3.17,1.96-4.85,2.99-4.85,2.99,0,0,1.03-1.68,2.99-4.85,.97-1.59,2.24-3.48,3.61-5.81,1.39-2.31,2.98-4.96,4.78-7.95,1.72-3.01,3.62-6.36,5.7-10.01,1.96-3.72,4.23-7.62,6.38-11.97,4.47-8.57,9.15-18.45,13.65-29.41,4.51-10.95,8.83-23.02,12.4-35.93,.5-1.6,.84-3.25,1.27-4.89,.41-1.64,.83-3.28,1.25-4.94,.35-1.67,.71-3.34,1.07-5.03,.37-1.68,.75-3.37,1.02-5.08,.3-1.7,.61-3.42,.92-5.14,.31-1.72,.49-3.46,.75-5.2,.55-3.45,.86-7.02,1.25-10.6,1.3-14.44,1.36-30.05,1.34-47.46,0-8.71,.03-17.88,.4-27.5,.37-9.62,1.09-19.7,2.53-30.1,.18-1.3,.36-2.6,.55-3.89,.24-1.3,.48-2.59,.72-3.88,.5-2.58,.99-5.16,1.49-7.72,.89-5.17,2.36-10.09,3.65-15.04,.33-1.23,.67-2.46,1-3.69,.34-1.22,.65-2.46,1.07-3.65,.8-2.39,1.6-4.76,2.4-7.13,.81-2.36,1.62-4.71,2.43-7.04,.85-2.32,1.83-4.56,2.74-6.82,.94-2.25,1.87-4.48,2.8-6.71,.47-1.11,.94-2.21,1.41-3.32,.52-1.08,1.04-2.15,1.55-3.22,2.08-4.27,4.13-8.5,6.25-12.63,2.26-4.04,4.51-8.02,6.76-11.94,.56-.98,1.12-1.95,1.68-2.92,.6-.94,1.2-1.88,1.8-2.82,1.2-1.87,2.4-3.72,3.59-5.56,1.2-1.83,2.39-3.65,3.57-5.46,1.17-1.82,2.49-3.51,3.72-5.24,2.51-3.42,4.99-6.79,7.44-10.11,2.57-3.22,5.15-6.34,7.68-9.41,1.27-1.53,2.53-3.04,3.78-4.55,1.29-1.47,2.61-2.89,3.9-4.31,2.6-2.81,5.15-5.58,7.66-8.3,2.53-2.68,5.18-5.17,7.7-7.66,2.55-2.46,4.99-4.91,7.5-7.18,2.54-2.23,5.03-4.42,7.46-6.56,1.22-1.06,2.42-2.1,3.61-3.13,1.18-1.03,2.36-2.04,3.58-2.98,2.4-1.89,4.75-3.74,7.03-5.53,2.29-1.77,4.48-3.51,6.67-5.13,2.22-1.57,4.38-3.08,6.47-4.55,8.24-5.93,15.78-10.41,21.84-14.1,3-1.88,5.85-3.32,8.24-4.64,2.41-1.28,4.45-2.37,6.11-3.25,3.31-1.7,5.06-2.6,5.06-2.6Z"/><path class="cls-1" d="M1961.81,627.62s-1.55,2.05-4.49,5.94c-2.98,3.86-7.36,9.55-12.99,16.86-5.63,7.29-12.51,16.19-20.22,26.55-7.67,10.38-16.23,22.22-24.63,35.53-4.19,6.66-8.32,13.68-12.18,21.05-3.84,7.37-7.47,15.07-10.39,23.05-1.53,3.98-2.76,8.04-3.95,12.13-1.09,4.1-2.05,8.23-2.73,12.38-1.33,8.31-1.82,17-1.54,26.31,.27,9.3,1.3,19.19,2.7,29.8,1.38,10.61,3.15,21.95,4.56,34.22,.69,6.15,1.32,12.48,1.69,19.1,.09,1.66,.17,3.32,.26,4.98,.09,1.66,.08,3.4,.12,5.1,.02,1.71,.04,3.43,.07,5.15-.06,1.74-.11,3.49-.17,5.23-.45,13.98-2.17,28.1-5.42,41.93-6.45,27.69-17.62,53.05-31.41,75.09-13.69,22.17-30,41.04-46.81,57.18-16.96,16.02-34.53,29.17-51.61,40.05-17.1,10.88-33.76,19.49-49.26,26.4-1.94,.86-3.83,1.75-5.74,2.55-1.91,.79-3.8,1.56-5.67,2.33-3.73,1.52-7.33,3.03-10.93,4.3-3.57,1.31-7.03,2.6-10.39,3.78-3.39,1.11-6.68,2.19-9.85,3.23-3.16,1.06-6.26,1.94-9.24,2.79-2.97,.85-5.83,1.66-8.57,2.44-5.54,1.39-10.56,2.66-15.1,3.71-4.56,.95-8.61,1.79-12.13,2.52-3.51,.7-6.52,1.14-8.93,1.56-4.82,.77-7.36,1.17-7.36,1.17,0,0,2.24-1.26,6.49-3.65,2.12-1.2,4.77-2.6,7.84-4.38,3.06-1.77,6.6-3.81,10.57-6.11,3.91-2.36,8.26-4.98,13.02-7.85,2.34-1.49,4.77-3.03,7.31-4.64,2.53-1.6,5.17-3.23,7.83-5.05,2.67-1.77,5.44-3.61,8.29-5.5,2.8-1.95,5.69-3.96,8.66-6.04,2.99-2.02,5.96-4.26,9.03-6.5,1.53-1.12,3.09-2.25,4.66-3.4,1.56-1.16,3.1-2.39,4.69-3.59,12.64-9.66,25.97-20.69,39.33-33.21,13.35-12.53,26.74-26.53,39.31-42.05,12.41-15.61,24.2-32.69,33.91-51.32,9.85-18.55,17.6-38.61,22.48-59.48,.56-2.61,1.11-5.22,1.66-7.82,.43-2.61,.86-5.21,1.29-7.8,.26-1.29,.37-2.59,.52-3.89,.15-1.29,.31-2.59,.46-3.88,.39-2.58,.48-5.15,.68-7.71,.77-10.21,.56-20.86,.09-32.04-.96-22.26-3.09-46.55-.47-71.16,1.28-12.26,3.8-24.52,7.7-36,1.96-5.73,4.25-11.16,6.68-16.33,2.52-5.12,5.11-10.05,7.94-14.63,5.56-9.25,11.67-17.4,17.8-24.8,6.15-7.39,12.38-14,18.5-20.01,12.26-12,24.04-21.65,34.54-29.79,10.51-8.11,19.79-14.67,27.44-19.93,7.65-5.25,13.67-9.19,17.76-11.85,4.11-2.63,6.28-4.01,6.28-4.01Z"/><path class="cls-1" d="M1193.59,889.72s.25,1.82,.65,5.39c.25,3.54,.66,8.85,.23,15.75-.41,6.89-1.48,15.44-4.14,25.13-2.6,9.7-6.72,20.56-12.75,31.86-6,11.32-13.95,23-23.73,34.45-9.79,11.44-21.44,22.61-34.79,32.94-1.67,1.29-3.35,2.59-5.08,3.84-1.72,1.27-3.46,2.53-5.24,3.75-.89,.61-1.78,1.23-2.67,1.85-.89,.59-1.78,1.18-2.67,1.77-1.79,1.17-3.59,2.36-5.4,3.54-3.64,2.33-7.35,4.54-11.11,6.82-3.77,2.15-7.59,4.37-11.45,6.45-15.47,8.4-31.65,15.94-47.98,23-16.31,7.05-31.98,13.37-46.7,19.59-3.65,1.56-7.28,3.11-10.87,4.65-3.52,1.57-7.02,3.13-10.47,4.67-1.7,.79-3.4,1.58-5.09,2.36-.85,.39-1.69,.77-2.53,1.16-.82,.39-1.63,.78-2.44,1.17-1.63,.77-3.23,1.56-4.82,2.35-1.6,.78-3.17,1.59-4.73,2.4-25.04,12.9-46.05,27.71-61.7,42.67-15.73,14.89-25.93,30.07-31.81,41.52-3.01,5.7-4.89,10.45-6.24,13.69-1.24,3.29-1.89,5.03-1.89,5.03,0,0-.27-1.82-.71-5.38-.29-3.54-.76-8.85-.4-15.75,.33-6.9,1.33-15.46,3.9-25.18,2.51-9.73,6.54-20.63,12.49-31.98,5.91-11.37,13.79-23.11,23.51-34.63,9.72-11.51,21.33-22.75,34.64-33.16,1.67-1.3,3.35-2.6,5.07-3.86,1.71-1.28,3.45-2.55,5.23-3.78,.89-.62,1.77-1.24,2.66-1.86,.89-.59,1.77-1.18,2.67-1.78,1.79-1.18,3.59-2.37,5.4-3.57,3.63-2.35,7.35-4.57,11.1-6.86,3.76-2.16,7.58-4.39,11.45-6.49,15.47-8.44,31.66-16.01,48.02-23.09,16.33-7.06,32.03-13.37,46.78-19.57,3.66-1.56,7.29-3.1,10.89-4.63,3.53-1.56,7.03-3.11,10.5-4.65,1.71-.78,3.41-1.57,5.1-2.34,.85-.39,1.7-.77,2.54-1.15,.82-.39,1.64-.78,2.45-1.16,1.63-.76,3.24-1.55,4.84-2.34,1.61-.77,3.18-1.58,4.75-2.38,25.13-12.81,46.25-27.49,62.02-42.34,15.86-14.78,26.19-29.86,32.19-41.25,3.07-5.68,5-10.4,6.39-13.63,1.27-3.27,1.95-5.01,1.95-5.01Z"/></g></g></svg>