<?xml version="1.0" encoding="UTF-8"?>
<svg id="Layer_1" data-name="Layer 1" xmlns="http://www.w3.org/2000/svg" viewBox="0 0 141.79 45.74">
  <defs>
    <style>
      .cls-1 {
        fill: #fff;
      }
    </style>
  </defs>
  <path class="cls-1" d="M0,33.59s.5,.26,1.4,.73c.45,.23,.98,.55,1.69,.79,.34,.13,.71,.28,1.09,.43,.38,.16,.79,.31,1.25,.42,.91,.23,1.86,.56,2.97,.7,.55,.08,1.1,.21,1.69,.27,.6,.05,1.21,.1,1.84,.15,2.55,.13,5.42,.01,8.55-.45,6.27-.99,13.54-3.3,21.06-6.88,7.61-3.61,15.79-8.49,24.87-13.55,4.54-2.52,9.12-4.94,13.71-7.12,4.62-2.17,9.13-4.09,13.92-5.62C103.47,.49,112.37-.38,119.77,.15c3.69,.25,7,.81,9.83,1.61,2.83,.73,5.15,1.74,6.97,2.62,1.8,.96,3.12,1.75,3.96,2.41,.82,.61,1.27,.95,1.27,.95,0,0-.55-.1-1.56-.28-.99-.22-2.5-.37-4.37-.52-3.78-.2-9.15,.1-15.45,1.69-6.29,1.52-13.53,4.24-20.93,8.12-3.61,1.9-7.61,4.29-11.73,6.72-4.13,2.45-8.47,5.05-13.08,7.61-9.21,5.13-18.75,9.57-28.22,12.17-9.54,2.62-18.63,3.06-26.1,1.9-3.74-.6-7.04-1.64-9.77-2.84-.67-.33-1.32-.64-1.94-.95-.61-.32-1.18-.7-1.72-1.03-1.1-.63-1.99-1.41-2.79-2.04-.41-.31-.76-.64-1.07-.98-.31-.32-.61-.62-.88-.91-.56-.53-.93-1.09-1.25-1.51-.6-.83-.93-1.29-.93-1.29Z"/>
  <path class="cls-1" d="M13.6,27.21s.22-.06,.62-.16c.4-.12,.99-.22,1.73-.47,1.48-.41,3.55-1.15,5.95-2.24,2.4-1.08,5.11-2.6,8.1-4.35,2.99-1.77,6.27-3.82,9.92-5.82,3.66-2,7.38-3.72,10.97-4.94,3.6-1.21,7.03-1.92,9.95-2.09,2.92-.18,5.27,.06,6.84,.4,.79,.13,1.39,.34,1.79,.44,.39,.11,.61,.18,.61,.18,0,0-.22,.06-.62,.17-.4,.12-.99,.22-1.73,.47-1.48,.41-3.55,1.16-5.94,2.25-2.4,1.08-5.11,2.6-8.1,4.36-2.99,1.77-6.27,3.82-9.92,5.82-3.66,2-7.38,3.72-10.97,4.94-3.6,1.21-7.03,1.91-9.96,2.08-2.92,.18-5.27-.07-6.84-.41-.79-.13-1.38-.34-1.79-.44-.39-.12-.61-.18-.61-.18Z"/>
</svg>